<svg width="120" height="120" viewBox="0 0 120 120" fill="none" xmlns="http://www.w3.org/2000/svg">
<path d="M102.28 38.6218H77.5025V83.5306H118.099V63.3172L113.365 46.9536C111.937 42.019 107.418 38.6218 102.28 38.6218Z" fill="#FF7058"/>
<path d="M112.174 63.1097L107.954 48.5234C107.227 46.0161 104.895 44.2612 102.282 44.2612H83.1439V63.1097H112.174Z" fill="#84DBFF"/>
<path d="M112.178 63.1023H83.1326V44.2538L112.178 63.1023Z" fill="#CDD6E0"/>
<path d="M112.174 63.1097L107.954 48.5234C107.227 46.0161 104.895 44.2612 102.282 44.2612H83.1439L112.174 63.1097Z" fill="#F2F2F2"/>
<path d="M7.49937 16.076H70.004C74.1437 16.076 77.5034 19.4332 77.5034 23.5754V83.528H0V23.5754C0 19.4334 3.35714 16.076 7.49937 16.076Z" fill="#00D465"/>
<path d="M50.7956 16.0887V35.9044L47.8956 33.0047L44.8561 36.0445L41.8188 33.0047L38.7816 36.0445L35.7392 33.0047L32.6621 36.0445L29.6272 33.0047L26.6926 35.9395V16.0887H50.7956Z" fill="#F2F2F2"/>
<path d="M119.999 83.5254V91.9997H0.00906372V83.5254H12.533C15.4578 78.2759 21.0823 74.7261 27.5318 74.7261C33.9561 74.7261 39.5807 78.2759 42.5305 83.5254H82.8272C85.7519 78.2759 91.3491 74.7261 97.7985 74.7261C104.248 74.7261 109.847 78.2759 112.797 83.5254H119.999Z" fill="#334A5E"/>
<path d="M109.777 91.9472C109.777 98.5616 104.415 103.924 97.8001 103.924C91.1857 103.924 85.8286 98.5616 85.8286 91.9472C85.8286 85.3328 91.188 79.9707 97.8001 79.9707C104.417 79.9707 109.777 85.3328 109.777 91.9472Z" fill="#40596B"/>
<path d="M102.613 91.9471C102.613 94.6045 100.458 96.7568 97.8034 96.7568C95.1461 96.7568 92.9888 94.6045 92.9888 91.9471C92.9888 89.2898 95.1437 87.1375 97.8034 87.1375C100.458 87.1351 102.613 89.29 102.613 91.9471Z" fill="#ACB3BA"/>
<path d="M39.4986 91.9472C39.4986 98.5616 34.134 103.924 27.5221 103.924C20.9076 103.924 15.5456 98.5616 15.5456 91.9472C15.5456 85.3328 20.9076 79.9707 27.5221 79.9707C34.134 79.9707 39.4986 85.3328 39.4986 91.9472Z" fill="#40596B"/>
<path d="M32.3324 91.9471C32.3324 94.6045 30.1801 96.7568 27.5228 96.7568C24.8654 96.7568 22.7107 94.6045 22.7107 91.9471C22.7107 89.2898 24.8656 87.1375 27.5228 87.1375C30.1799 87.1375 32.3324 89.29 32.3324 91.9471Z" fill="#ACB3BA"/>
</svg>
