<svg width="35" height="35" viewBox="0 0 35 35" fill="none" xmlns="http://www.w3.org/2000/svg">
<g clip-path="url(#clip0_1_74)">
<path d="M25.7715 12.3047H22.5601C21.9953 11.7532 21.3394 11.2969 20.6377 10.9574L20.6378 8.20312H22.0495C22.7955 8.85951 23.755 9.22852 24.7461 9.22852C27.0077 9.22852 28.8477 7.38855 28.8477 5.12695C28.8477 2.86535 27.0077 1.02539 24.7461 1.02539C23.755 1.02539 22.7955 1.39439 22.0495 2.05078H20.4688C20.0456 0.857158 18.9053 0 17.5684 0C16.2315 0 15.0911 0.857158 14.6679 2.05078H13.0872C12.3412 1.39439 11.3818 1.02539 10.3906 1.02539C8.12902 1.02539 6.28906 2.86535 6.28906 5.12695C6.28906 7.38855 8.12902 9.22852 10.3906 9.22852C11.3818 9.22852 12.3412 8.85951 13.0873 8.20312H14.4922V10.9574C13.7904 11.2969 13.1413 11.7532 12.5766 12.3047H6.15234V11.2793C6.15234 8.4523 3.85239 6.15234 1.02539 6.15234C0.459102 6.15234 0 6.61145 0 7.17773V27.8223C0 28.3886 0.459102 28.8477 1.02539 28.8477C3.85239 28.8477 6.15234 26.5477 6.15234 23.7207V22.6953H12.5767C13.9179 24.004 15.7121 24.7461 17.5684 24.7461C19.4247 24.7461 21.2188 24.004 22.56 22.6953H23.7207C24.2861 22.6953 24.7461 23.1553 24.7461 23.7207V27.8223C24.7461 28.3886 25.2052 28.8408 25.7715 28.8408H28.1055C27.0244 30.7366 27.0787 30.6314 27.0358 30.7337C26.1905 32.7484 27.6713 35 29.873 35C31.5692 35 32.9492 33.62 32.9492 31.9238C32.9492 31.3857 32.7933 30.8631 32.6549 30.6214L31.6406 28.8477H33.9746C34.5409 28.8477 35 28.3886 35 27.8223V21.6699C35 16.5888 30.8908 12.3047 25.7715 12.3047ZM4.10156 23.7207C4.10156 25.0575 3.2444 26.198 2.05078 26.6212V8.37881C3.2444 8.80202 4.10156 9.94239 4.10156 11.2793C4.10156 12.7962 4.10156 22.1275 4.10156 23.7207ZM29.873 32.9492C29.1606 32.9492 28.6686 32.2393 28.908 31.5755L29.873 29.8879L30.8381 31.5755C31.0778 32.2403 30.5843 32.9492 29.873 32.9492ZM32.9492 26.7969H26.7969V24.7461H32.9492V26.7969ZM32.9492 22.6953H26.6205C26.1972 21.5018 25.0575 20.6445 23.7207 20.6445H22.124C21.8335 20.6445 21.5567 20.7678 21.3622 20.9836C20.3677 22.0874 19.0204 22.6953 17.5684 22.6953C16.1163 22.6953 14.7689 22.0874 13.7745 20.9836C13.5801 20.7678 13.3031 20.6445 13.0126 20.6445H6.15234V14.3555H13.0127C13.3032 14.3555 13.5801 14.2322 13.7746 14.0164C14.3516 13.3759 15.0747 12.8865 15.8656 12.6012C16.2721 12.4545 16.543 12.0688 16.543 11.6366V7.17773C16.543 6.61145 16.0839 6.15234 15.5176 6.15234H12.6685C12.378 6.15234 12.101 6.2756 11.9066 6.49154C11.508 6.93403 10.9696 7.17773 10.3906 7.17773C9.25982 7.17773 8.33984 6.25775 8.33984 5.12695C8.33984 3.99615 9.25982 3.07617 10.3906 3.07617C10.9696 3.07617 11.508 3.31987 11.9066 3.76236C12.101 3.97831 12.3779 4.10156 12.6684 4.10156H15.5176C16.0839 4.10156 16.543 3.64246 16.543 3.07617C16.543 2.51077 17.003 2.05078 17.5684 2.05078C18.1338 2.05078 18.5938 2.51077 18.5938 3.07617C18.5938 3.64246 19.0529 4.10156 19.6191 4.10156H22.4683C22.7589 4.10156 23.0358 3.97831 23.2302 3.76236C23.6287 3.31987 24.1671 3.07617 24.7461 3.07617C25.8769 3.07617 26.7969 3.99615 26.7969 5.12695C26.7969 6.25775 25.8769 7.17773 24.7461 7.17773C24.1671 7.17773 23.6287 6.93403 23.2302 6.49154C23.0357 6.2756 22.7589 6.15234 22.4683 6.15234H19.6192C19.0529 6.15234 18.5938 6.61145 18.5938 7.17773L18.5938 11.6366C18.5938 12.0688 18.8647 12.4545 19.2711 12.6012C20.0621 12.8866 20.7851 13.3759 21.3622 14.0164C21.5566 14.2323 21.8335 14.3555 22.124 14.3555H25.7715C29.7293 14.3555 32.9492 17.6367 32.9492 21.6699V22.6953Z" fill="#00D465"/>
</g>
<defs>
<clipPath id="clip0_1_74">
<rect width="35" height="35" fill="white"/>
</clipPath>
</defs>
</svg>
