<svg width="109" height="104" viewBox="0 0 109 104" fill="none" xmlns="http://www.w3.org/2000/svg">
<path d="M73.125 68.5426V53.6131H73.125C84.2356 59.7566 93.8328 68.2847 101.22 78.5787L108.75 89.0706H97.5V102.134V102.134C92.6222 92.424 84.818 84.4739 75.1784 79.3946L74.0625 78.8066L73.125 68.5426Z" fill="#0B8F4A"/>
<path d="M35.625 68.5426V53.6131H35.625C24.5144 59.7566 14.9172 68.2847 7.52961 78.5787L0 89.0706H11.25V102.134V102.134C16.1278 92.424 23.932 84.4739 33.5716 79.3946L34.6875 78.8066L35.625 68.5426Z" fill="#0B8F4A"/>
<path d="M86.25 77.7334L86.1633 77.8011C79.9587 82.5483 72.7607 85.8458 65.1023 87.4493L54.375 79.7396L43.6242 87.4679C38.1785 86.3379 32.9497 84.347 28.1367 81.5708C26.1788 80.4398 24.296 79.1845 22.5 77.8128L24.2414 76.5858C33.0496 70.3765 43.5744 67.0363 54.3681 67.0246C65.1618 67.0129 75.6939 70.3303 84.5156 76.5204L86.25 77.7334Z" fill="#04552A"/>
<path d="M80.5969 81.5195L88.125 104L65.1023 87.4493L54.375 79.7396L43.6242 87.468L20.625 104L28.1367 81.5708L31.1906 72.4545L33.75 64.8102L0 38.6836H41.25L54.375 0L67.5 38.6836H108.75L75 64.8102L77.5406 72.3939L80.5969 81.5195Z" fill="#F2E368"/>
<path d="M22.5 77.8119L24.2897 76.558C33.0969 70.3874 43.6044 67.0755 54.375 67.0755C65.1456 67.0755 75.6531 70.3874 84.4603 76.558L86.25 77.8119V55.4177L84.4603 54.1638C75.6531 47.9932 65.1456 44.6813 54.375 44.6813C43.6044 44.6813 33.0969 47.9932 24.2897 54.1638L22.5 55.4177V77.8119Z" fill="#00D465"/>
</svg>
