<svg width="35" height="35" viewBox="0 0 35 35" fill="none" xmlns="http://www.w3.org/2000/svg">
<path d="M29.1664 32.9492C27.9364 32.9492 27.3564 32.6774 26.6848 32.3626C25.9043 31.9967 25.0196 31.582 23.3328 31.582C21.6461 31.582 20.7615 31.9967 19.981 32.3626C19.3094 32.6774 18.7294 32.9492 17.4995 32.9492C16.2696 32.9492 15.6896 32.6774 15.0181 32.3626C14.2377 31.9967 13.353 31.582 11.6664 31.582C9.97972 31.582 9.09508 31.9967 8.31455 32.3626C7.64299 32.6774 7.06303 32.9492 5.83317 32.9492C4.60332 32.9492 4.02336 32.6774 3.35187 32.3626C2.57134 31.9967 1.6867 31.582 0 31.582V33.6328C1.22992 33.6328 1.80988 33.9047 2.48138 34.2195C3.26184 34.5853 4.14647 35 5.83317 35C7.51987 35 8.40451 34.5853 9.18504 34.2195C9.8566 33.9047 10.4366 33.6328 11.6664 33.6328C12.8963 33.6328 13.4762 33.9047 14.1477 34.2195C14.9282 34.5853 15.8128 35 17.4995 35C19.1862 35 20.0709 34.5853 20.8514 34.2195C21.5229 33.9047 22.1029 33.6328 23.3328 33.6328C24.5628 33.6328 25.1429 33.9047 25.8144 34.2195C26.5949 34.5853 27.4796 35 29.1664 35C30.8532 35 31.7379 34.5853 32.5184 34.2195C33.19 33.9047 33.77 33.6328 35 33.6328V31.582C33.3132 31.582 32.4285 31.9967 31.648 32.3626C30.9764 32.6774 30.3964 32.9492 29.1664 32.9492Z" fill="#00D465"/>
<path d="M31.648 27.5774C30.9764 27.8922 30.3964 28.1641 29.1664 28.1641C27.9364 28.1641 27.3564 27.8922 26.6848 27.5774C25.9043 27.2115 25.0196 26.7969 23.3328 26.7969C21.6461 26.7969 20.7615 27.2115 19.981 27.5774C19.3094 27.8922 18.7294 28.1641 17.4995 28.1641C16.2696 28.1641 15.6896 27.8922 15.0181 27.5774C14.2377 27.2115 13.353 26.7969 11.6664 26.7969C9.97972 26.7969 9.09508 27.2115 8.31455 27.5774C7.64299 27.8922 7.06303 28.1641 5.83317 28.1641C4.60332 28.1641 4.02336 27.8922 3.35187 27.5774C2.57134 27.2115 1.6867 26.7969 0 26.7969V28.8477C1.22992 28.8477 1.80988 29.1195 2.48138 29.4343C3.26184 29.8002 4.14647 30.2148 5.83317 30.2148C7.51987 30.2148 8.40451 29.8002 9.18504 29.4343C9.8566 29.1195 10.4366 28.8477 11.6664 28.8477C12.8963 28.8477 13.4762 29.1195 14.1477 29.4343C14.9282 29.8002 15.8128 30.2148 17.4995 30.2148C19.1862 30.2148 20.0709 29.8002 20.8514 29.4343C21.5229 29.1195 22.1029 28.8477 23.3328 28.8477C24.5628 28.8477 25.1429 29.1195 25.8144 29.4343C26.5949 29.8002 27.4796 30.2148 29.1664 30.2148C30.8532 30.2148 31.7379 29.8002 32.5184 29.4343C33.19 29.1195 33.77 28.8477 35 28.8477V26.7969C33.3132 26.7969 32.4285 27.2115 31.648 27.5774Z" fill="#00D465"/>
<path d="M6.00947 13.578H8.06025V11.8124H12.8454V13.6854H18.9978V0H12.8454V1.81446H8.06025V0H6.00947V1.81446H0V3.86524H6.00947V9.76165H0V11.8124H6.00947V13.578ZM14.8962 2.05078H16.947V11.6347H14.8962V2.05078ZM8.06025 3.86524H12.8454V9.76165H8.06025V3.86524Z" fill="#00D465"/>
<path d="M24.3768 17.5638C26.146 17.5638 27.5854 16.1244 27.5854 14.3551C27.5854 13.8898 27.4522 13.086 26.3009 11.4845C25.7294 10.6894 24.3768 9.17944 24.3768 9.17944C24.3768 9.17944 23.0241 10.6894 22.4526 11.4845C21.3013 13.086 21.1682 13.8899 21.1682 14.3552C21.1682 16.1243 22.6076 17.5638 24.3768 17.5638ZM24.3768 12.3274C25.0359 13.196 25.5309 14.0398 25.5346 14.3551C25.5346 14.9935 25.0152 15.513 24.3768 15.513C23.7384 15.513 23.219 14.9937 23.2189 14.3553C23.2226 14.0399 23.7176 13.196 24.3768 12.3274Z" fill="#00D465"/>
<path d="M25.9539 22.4924C25.9539 24.2616 27.3933 25.7011 29.1625 25.7011C30.9317 25.7011 32.3711 24.2617 32.3711 22.4924C32.3711 22.0271 32.238 21.2233 31.0867 19.6217C30.5152 18.8267 29.1625 17.3167 29.1625 17.3167C29.1625 17.3167 27.8098 18.8266 27.2384 19.6217C26.0871 21.2233 25.9539 22.0271 25.9539 22.4924ZM29.1625 20.4647C29.8216 21.3333 30.3167 22.1771 30.3203 22.4924C30.3203 23.1308 29.801 23.6503 29.1625 23.6503C28.5241 23.6503 28.0047 23.131 28.0047 22.4926C28.0083 22.1771 28.5034 21.3333 29.1625 20.4647Z" fill="#00D465"/>
</svg>
