<svg width="182" height="182" viewBox="0 0 182 182" fill="none" xmlns="http://www.w3.org/2000/svg">
<circle cx="91" cy="91" r="89.5" stroke="#00D465" stroke-width="3"/>
<path d="M62.4 81.06C64.72 80.14 67.04 78.96 69.36 77.52C71.72 76.08 73.8 74.38 75.6 72.42H80.7V114H73.44V82.14C72.36 82.98 71 83.8 69.36 84.6C67.72 85.4 66.14 86.06 64.62 86.58L62.4 81.06ZM119.962 83.22C119.962 84.66 119.662 86.08 119.062 87.48C118.462 88.84 117.682 90.18 116.722 91.5C115.802 92.78 114.742 94.04 113.542 95.28C112.342 96.48 111.142 97.66 109.942 98.82C109.302 99.42 108.582 100.14 107.782 100.98C106.982 101.82 106.222 102.66 105.502 103.5C104.782 104.34 104.162 105.16 103.642 105.96C103.122 106.72 102.842 107.36 102.802 107.88H121.282V114H94.8216C94.7816 113.68 94.7616 113.3 94.7616 112.86C94.7616 112.38 94.7616 112.02 94.7616 111.78C94.7616 109.86 95.0616 108.1 95.6616 106.5C96.3016 104.86 97.1216 103.34 98.1216 101.94C99.1216 100.54 100.242 99.22 101.482 97.98C102.722 96.74 103.962 95.52 105.202 94.32C106.162 93.4 107.082 92.5 107.962 91.62C108.842 90.74 109.602 89.88 110.242 89.04C110.922 88.16 111.462 87.28 111.862 86.4C112.262 85.48 112.462 84.54 112.462 83.58C112.462 81.5 111.862 80.02 110.662 79.14C109.462 78.26 108.002 77.82 106.282 77.82C105.162 77.82 104.122 77.98 103.162 78.3C102.202 78.62 101.342 79 100.582 79.44C99.8616 79.88 99.2216 80.34 98.6616 80.82C98.1016 81.26 97.6816 81.62 97.4016 81.9L93.8016 76.8C95.4816 75.2 97.4416 73.92 99.6816 72.96C101.962 71.96 104.402 71.46 107.002 71.46C111.442 71.46 114.702 72.52 116.782 74.64C118.902 76.72 119.962 79.58 119.962 83.22Z" fill="#00D465"/>
</svg>
