<svg width="182" height="182" viewBox="0 0 182 182" fill="none" xmlns="http://www.w3.org/2000/svg">
<circle cx="91" cy="91" r="89.5" stroke="#00D465" stroke-width="3"/>
<path d="M77.22 81.36C76.26 82.52 75.26 83.76 74.22 85.08C73.22 86.4 72.24 87.78 71.28 89.22C70.32 90.66 69.4 92.14 68.52 93.66C67.64 95.14 66.84 96.62 66.12 98.1H77.22V81.36ZM84.3 72.42V98.1H88.98V104.04H84.3V114H77.22V104.04H58.98V98.88C59.78 97.12 60.84 95.1 62.16 92.82C63.52 90.54 65.02 88.2 66.66 85.8C68.3 83.4 70.04 81.04 71.88 78.72C73.72 76.4 75.56 74.3 77.4 72.42H84.3ZM114.082 102.12C114.082 100.8 113.822 99.62 113.302 98.58C112.782 97.54 111.862 96.66 110.542 95.94C109.262 95.22 107.522 94.68 105.322 94.32C103.162 93.96 100.422 93.78 97.1016 93.78C97.5416 89.94 97.8816 86.3 98.1216 82.86C98.3616 79.38 98.5616 75.9 98.7216 72.42H119.962V78.54H104.902C104.862 79.22 104.802 80 104.722 80.88C104.682 81.72 104.622 82.58 104.542 83.46C104.502 84.34 104.442 85.18 104.362 85.98C104.282 86.78 104.202 87.46 104.122 88.02C110.042 88.34 114.402 89.7 117.202 92.1C120.042 94.46 121.462 97.7 121.462 101.82C121.462 103.7 121.142 105.44 120.502 107.04C119.862 108.64 118.882 110.02 117.562 111.18C116.242 112.34 114.582 113.26 112.582 113.94C110.582 114.58 108.242 114.9 105.562 114.9C104.482 114.9 103.382 114.82 102.262 114.66C101.142 114.5 100.062 114.3 99.0216 114.06C98.0216 113.86 97.1216 113.64 96.3216 113.4C95.5216 113.16 94.9216 112.94 94.5216 112.74L95.9016 106.62C96.7416 107.02 97.9416 107.46 99.5016 107.94C101.102 108.38 103.042 108.6 105.322 108.6C106.882 108.6 108.222 108.44 109.342 108.12C110.462 107.76 111.362 107.28 112.042 106.68C112.762 106.08 113.282 105.4 113.602 104.64C113.922 103.84 114.082 103 114.082 102.12Z" fill="#00D465"/>
</svg>
