<svg width="121" height="121" viewBox="0 0 121 121" fill="none" xmlns="http://www.w3.org/2000/svg">
<circle cx="60.5" cy="60.5" r="60.5" fill="#00D465"/>
<path d="M57.5 62.18C57.5 69.18 56.22 74.56 53.66 78.32C51.1 82.04 47.56 83.9 43.04 83.9C38.52 83.9 34.98 82.04 32.42 78.32C29.86 74.56 28.58 69.18 28.58 62.18C28.58 58.7 28.9 55.62 29.54 52.94C30.22 50.22 31.18 47.94 32.42 46.1C33.7 44.26 35.22 42.86 36.98 41.9C38.78 40.94 40.8 40.46 43.04 40.46C47.56 40.46 51.1 42.34 53.66 46.1C56.22 49.82 57.5 55.18 57.5 62.18ZM50 62.18C50 60.02 49.88 58 49.64 56.12C49.4 54.24 49 52.62 48.44 51.26C47.92 49.86 47.22 48.76 46.34 47.96C45.46 47.16 44.36 46.76 43.04 46.76C41.72 46.76 40.6 47.16 39.68 47.96C38.8 48.76 38.08 49.86 37.52 51.26C37 52.62 36.62 54.24 36.38 56.12C36.18 58 36.08 60.02 36.08 62.18C36.08 64.34 36.18 66.36 36.38 68.24C36.62 70.12 37 71.76 37.52 73.16C38.08 74.52 38.8 75.6 39.68 76.4C40.6 77.2 41.72 77.6 43.04 77.6C44.36 77.6 45.46 77.2 46.34 76.4C47.22 75.6 47.92 74.52 48.44 73.16C49 71.76 49.4 70.12 49.64 68.24C49.88 66.36 50 64.34 50 62.18ZM88.9616 52.22C88.9616 53.66 88.6616 55.08 88.0616 56.48C87.4616 57.84 86.6816 59.18 85.7216 60.5C84.8016 61.78 83.7416 63.04 82.5416 64.28C81.3416 65.48 80.1416 66.66 78.9416 67.82C78.3016 68.42 77.5816 69.14 76.7816 69.98C75.9816 70.82 75.2216 71.66 74.5016 72.5C73.7816 73.34 73.1616 74.16 72.6416 74.96C72.1216 75.72 71.8416 76.36 71.8016 76.88H90.2816V83H63.8216C63.7816 82.68 63.7616 82.3 63.7616 81.86C63.7616 81.38 63.7616 81.02 63.7616 80.78C63.7616 78.86 64.0616 77.1 64.6616 75.5C65.3016 73.86 66.1216 72.34 67.1216 70.94C68.1216 69.54 69.2416 68.22 70.4816 66.98C71.7216 65.74 72.9616 64.52 74.2016 63.32C75.1616 62.4 76.0816 61.5 76.9616 60.62C77.8416 59.74 78.6016 58.88 79.2416 58.04C79.9216 57.16 80.4616 56.28 80.8616 55.4C81.2616 54.48 81.4616 53.54 81.4616 52.58C81.4616 50.5 80.8616 49.02 79.6616 48.14C78.4616 47.26 77.0016 46.82 75.2816 46.82C74.1616 46.82 73.1216 46.98 72.1616 47.3C71.2016 47.62 70.3416 48 69.5816 48.44C68.8616 48.88 68.2216 49.34 67.6616 49.82C67.1016 50.26 66.6816 50.62 66.4016 50.9L62.8016 45.8C64.4816 44.2 66.4416 42.92 68.6816 41.96C70.9616 40.96 73.4016 40.46 76.0016 40.46C80.4416 40.46 83.7016 41.52 85.7816 43.64C87.9016 45.72 88.9616 48.58 88.9616 52.22Z" fill="white"/>
</svg>
