<svg width="121" height="121" viewBox="0 0 121 121" fill="none" xmlns="http://www.w3.org/2000/svg">
<circle cx="60.5" cy="60.5" r="60.5" fill="#00D465"/>
<path d="M57.5 62.18C57.5 69.18 56.22 74.56 53.66 78.32C51.1 82.04 47.56 83.9 43.04 83.9C38.52 83.9 34.98 82.04 32.42 78.32C29.86 74.56 28.58 69.18 28.58 62.18C28.58 58.7 28.9 55.62 29.54 52.94C30.22 50.22 31.18 47.94 32.42 46.1C33.7 44.26 35.22 42.86 36.98 41.9C38.78 40.94 40.8 40.46 43.04 40.46C47.56 40.46 51.1 42.34 53.66 46.1C56.22 49.82 57.5 55.18 57.5 62.18ZM50 62.18C50 60.02 49.88 58 49.64 56.12C49.4 54.24 49 52.62 48.44 51.26C47.92 49.86 47.22 48.76 46.34 47.96C45.46 47.16 44.36 46.76 43.04 46.76C41.72 46.76 40.6 47.16 39.68 47.96C38.8 48.76 38.08 49.86 37.52 51.26C37 52.62 36.62 54.24 36.38 56.12C36.18 58 36.08 60.02 36.08 62.18C36.08 64.34 36.18 66.36 36.38 68.24C36.62 70.12 37 71.76 37.52 73.16C38.08 74.52 38.8 75.6 39.68 76.4C40.6 77.2 41.72 77.6 43.04 77.6C44.36 77.6 45.46 77.2 46.34 76.4C47.22 75.6 47.92 74.52 48.44 73.16C49 71.76 49.4 70.12 49.64 68.24C49.88 66.36 50 64.34 50 62.18ZM74.2616 83.9C73.1816 83.9 72.0616 83.82 70.9016 83.66C69.7816 83.54 68.7016 83.36 67.6616 83.12C66.6616 82.92 65.7416 82.7 64.9016 82.46C64.0616 82.18 63.4216 81.92 62.9816 81.68L64.4216 75.5C65.2616 75.9 66.4816 76.36 68.0816 76.88C69.6816 77.36 71.6616 77.6 74.0216 77.6C77.1816 77.6 79.4616 77 80.8616 75.8C82.2616 74.56 82.9616 72.92 82.9616 70.88C82.9616 69.56 82.6816 68.46 82.1216 67.58C81.6016 66.7 80.8616 66 79.9016 65.48C78.9816 64.92 77.9016 64.54 76.6616 64.34C75.4616 64.1 74.1816 63.98 72.8216 63.98H70.3616V58.1H73.3616C74.2816 58.1 75.2016 58.02 76.1216 57.86C77.0816 57.66 77.9416 57.34 78.7016 56.9C79.4616 56.42 80.0816 55.8 80.5616 55.04C81.0416 54.28 81.2816 53.3 81.2816 52.1C81.2816 51.14 81.1016 50.32 80.7416 49.64C80.3816 48.96 79.9016 48.4 79.3016 47.96C78.7416 47.52 78.0816 47.2 77.3216 47C76.5616 46.8 75.7616 46.7 74.9216 46.7C73.1216 46.7 71.5216 46.98 70.1216 47.54C68.7216 48.06 67.4816 48.66 66.4016 49.34L63.7616 43.94C64.3216 43.58 65.0016 43.2 65.8016 42.8C66.6016 42.4 67.4816 42.02 68.4416 41.66C69.4416 41.3 70.5016 41.02 71.6216 40.82C72.7416 40.58 73.9216 40.46 75.1616 40.46C77.4816 40.46 79.4816 40.74 81.1616 41.3C82.8416 41.86 84.2216 42.66 85.3016 43.7C86.4216 44.7 87.2416 45.9 87.7616 47.3C88.3216 48.66 88.6016 50.16 88.6016 51.8C88.6016 53.72 88.0616 55.44 86.9816 56.96C85.9416 58.48 84.5816 59.64 82.9016 60.44C85.0616 61.2 86.8416 62.46 88.2416 64.22C89.6816 65.98 90.4016 68.24 90.4016 71C90.4016 72.84 90.0816 74.56 89.4416 76.16C88.8016 77.72 87.8216 79.08 86.5016 80.24C85.1816 81.36 83.5016 82.26 81.4616 82.94C79.4616 83.58 77.0616 83.9 74.2616 83.9Z" fill="white"/>
</svg>
