<svg width="74" height="65" viewBox="0 0 74 65" fill="none" xmlns="http://www.w3.org/2000/svg">
<path d="M13.4 28.3C11.54 28.3 9.24 28.12 6.5 27.76V24.19C9.9 24.71 12.22 24.97 13.46 24.97C16.06 24.97 17.36 24.3 17.36 22.96V21.7C17.36 21.06 17.17 20.57 16.79 20.23C16.43 19.89 15.77 19.72 14.81 19.72H12.53C8.25 19.72 6.11 18.02 6.11 14.62V13.18C6.11 11.48 6.82 10.23 8.24 9.43C9.66 8.63 11.91 8.23 14.99 8.23C16.59 8.23 18.62 8.36 21.08 8.62V12.1C18.06 11.74 15.98 11.56 14.84 11.56C13.26 11.56 12.2 11.69 11.66 11.95C11.08 12.23 10.79 12.67 10.79 13.27V14.65C10.79 15.67 11.65 16.18 13.37 16.18H15.71C17.93 16.18 19.54 16.59 20.54 17.41C21.54 18.23 22.04 19.48 22.04 21.16V22.45C22.04 24.77 21.21 26.34 19.55 27.16C18.75 27.58 17.86 27.87 16.88 28.03C15.92 28.21 14.76 28.3 13.4 28.3Z" fill="#00D465"/>
<path d="M2.1 38.53H8.76L13.56 52.45L18.3 38.53H24.57V58H20.34V43.6H20.25L15.33 58H11.58L6.51 43.6H6.39V58H2.1V38.53Z" fill="#00D465"/>
<path d="M32.62 28.2C31.7933 28.2 31.1467 28.1133 30.68 27.94C30.2133 27.7533 29.8733 27.4467 29.66 27.02C29.46 26.58 29.36 25.9667 29.36 25.18V19.5H27.2V18.32H29.36V15.32H31.18V18.32H34.64V19.5H31.18V25.28C31.18 25.76 31.2333 26.12 31.34 26.36C31.46 26.6 31.66 26.7733 31.94 26.88C32.2333 26.9733 32.6533 27.02 33.2 27.02C33.3733 27.02 33.8533 26.9667 34.64 26.86V28.04C33.96 28.1467 33.2867 28.2 32.62 28.2ZM36.6069 14.82H38.4069V16.7H36.6069V14.82ZM36.6069 18.32H38.4069V28H36.6069V18.32ZM41.5288 18.32H43.2288V19.9C43.2288 19.5933 43.3621 19.3067 43.6288 19.04C43.8954 18.76 44.2354 18.54 44.6488 18.38C45.0621 18.2067 45.4688 18.12 45.8688 18.12H46.7488V19.66H45.7488C44.8954 19.66 44.2754 19.7733 43.8888 20C43.5154 20.2133 43.3288 20.6067 43.3288 21.18V28H41.5288V18.32ZM48.5405 14H50.3405V28H48.5405V14ZM50.5605 22.7L54.6405 18.32H56.8405L52.6405 22.7L57.2205 28H54.9805L50.5605 22.7ZM61.7939 28.2C60.8739 28.2 60.1606 28.1133 59.6539 27.94C59.1606 27.7667 58.8006 27.46 58.5739 27.02C58.3606 26.58 58.2539 25.9467 58.2539 25.12C58.2539 24.3867 58.3539 23.82 58.5539 23.42C58.7672 23.0067 59.1206 22.7133 59.6139 22.54C60.1206 22.3667 60.8339 22.28 61.7539 22.28H64.6539V20.74C64.6539 20.38 64.5806 20.1067 64.4339 19.92C64.3006 19.72 64.0672 19.58 63.7339 19.5C63.4139 19.42 62.9406 19.38 62.3139 19.38C61.3139 19.38 60.2072 19.46 58.9939 19.62V18.3C60.3139 18.18 61.5072 18.12 62.5739 18.12C63.6939 18.12 64.5206 18.2067 65.0539 18.38C65.5872 18.54 65.9539 18.8267 66.1539 19.24C66.3539 19.6533 66.4539 20.2933 66.4539 21.16V28H64.7139V27.08C64.5672 27.8267 63.5939 28.2 61.7939 28.2ZM62.0939 27.02C62.7472 27.02 63.3006 26.9733 63.7539 26.88C64.3539 26.76 64.6539 26.48 64.6539 26.04V23.4H61.8739C61.3006 23.4 60.8872 23.4467 60.6339 23.54C60.3806 23.62 60.2139 23.78 60.1339 24.02C60.0539 24.26 60.0139 24.6467 60.0139 25.18C60.0139 25.66 60.0606 26.0333 60.1539 26.3C60.2472 26.5533 60.4139 26.74 60.6539 26.86C60.8939 26.9667 61.2539 27.02 61.7339 27.02H62.0939Z" fill="#444444"/>
<path d="M31.54 58.2C30.62 58.2 29.9067 58.1133 29.4 57.94C28.9067 57.7667 28.5467 57.46 28.32 57.02C28.1067 56.58 28 55.9467 28 55.12C28 54.3867 28.1 53.82 28.3 53.42C28.5133 53.0067 28.8667 52.7133 29.36 52.54C29.8667 52.3667 30.58 52.28 31.5 52.28H34.4V50.74C34.4 50.38 34.3267 50.1067 34.18 49.92C34.0467 49.72 33.8133 49.58 33.48 49.5C33.16 49.42 32.6867 49.38 32.06 49.38C31.06 49.38 29.9533 49.46 28.74 49.62V48.3C30.06 48.18 31.2533 48.12 32.32 48.12C33.44 48.12 34.2667 48.2067 34.8 48.38C35.3333 48.54 35.7 48.8267 35.9 49.24C36.1 49.6533 36.2 50.2933 36.2 51.16V58H34.46V57.08C34.3133 57.8267 33.34 58.2 31.54 58.2ZM31.84 57.02C32.4933 57.02 33.0467 56.9733 33.5 56.88C34.1 56.76 34.4 56.48 34.4 56.04V53.4H31.62C31.0467 53.4 30.6333 53.4467 30.38 53.54C30.1267 53.62 29.96 53.78 29.88 54.02C29.8 54.26 29.76 54.6467 29.76 55.18C29.76 55.66 29.8067 56.0333 29.9 56.3C29.9933 56.5533 30.16 56.74 30.4 56.86C30.64 56.9667 31 57.02 31.48 57.02H31.84ZM42.2817 58.2C41.2551 58.2 40.1484 58.12 38.9617 57.96V56.58C40.5217 56.8333 41.6417 56.96 42.3217 56.96C43.1751 56.96 43.7884 56.88 44.1617 56.72C44.5351 56.5467 44.7217 56.2333 44.7217 55.78V54.8C44.7217 54.3867 44.5817 54.0933 44.3017 53.92C44.0217 53.7467 43.5684 53.66 42.9417 53.66H41.8417C40.8417 53.66 40.0751 53.4533 39.5417 53.04C39.0217 52.6267 38.7617 52.0467 38.7617 51.3V50.4C38.7617 48.88 40.2017 48.12 43.0817 48.12C43.2951 48.12 44.2751 48.1733 46.0217 48.28V49.58C44.8351 49.3933 43.8284 49.3 43.0017 49.3C42.0551 49.3 41.4084 49.3933 41.0617 49.58C40.7151 49.7667 40.5417 50.08 40.5417 50.52V51.34C40.5417 51.9933 41.1351 52.32 42.3217 52.32H43.4417C45.4817 52.32 46.5017 53.08 46.5017 54.6V55.44C46.5017 56.44 46.1551 57.1533 45.4617 57.58C44.7684 57.9933 43.7084 58.2 42.2817 58.2ZM53.0497 58.2C52.223 58.2 51.5764 58.1133 51.1097 57.94C50.643 57.7533 50.303 57.4467 50.0897 57.02C49.8897 56.58 49.7897 55.9667 49.7897 55.18V49.5H47.6297V48.32H49.7897V45.32H51.6097V48.32H55.0697V49.5H51.6097V55.28C51.6097 55.76 51.663 56.12 51.7697 56.36C51.8897 56.6 52.0897 56.7733 52.3697 56.88C52.663 56.9733 53.083 57.02 53.6297 57.02C53.803 57.02 54.283 56.9667 55.0697 56.86V58.04C54.3897 58.1467 53.7164 58.2 53.0497 58.2ZM61.1166 58.2C58.1566 58.2 56.6766 57.2133 56.6766 55.24V51.42C56.6766 50.2467 57.0099 49.4067 57.6766 48.9C58.3566 48.38 59.4499 48.12 60.9566 48.12C62.3832 48.12 63.4099 48.3667 64.0366 48.86C64.6766 49.3533 64.9966 50.2067 64.9966 51.42V53.56H58.4966V55.02C58.4966 55.6867 58.7299 56.1667 59.1966 56.46C59.6632 56.7533 60.3832 56.9 61.3566 56.9C62.2766 56.9 63.3632 56.74 64.6166 56.42V57.8C63.3899 58.0667 62.2232 58.2 61.1166 58.2ZM63.1966 52.38V50.86C63.1966 50.2733 63.0166 49.8733 62.6566 49.66C62.3099 49.4333 61.7099 49.32 60.8566 49.32C60.0299 49.32 59.4299 49.4333 59.0566 49.66C58.6832 49.8733 58.4966 50.2733 58.4966 50.86V52.38H63.1966ZM67.7397 48.32H69.4397V49.9C69.4397 49.5933 69.573 49.3067 69.8397 49.04C70.1064 48.76 70.4464 48.54 70.8597 48.38C71.273 48.2067 71.6797 48.12 72.0797 48.12H72.9597V49.66H71.9597C71.1064 49.66 70.4864 49.7733 70.0997 50C69.7264 50.2133 69.5397 50.6067 69.5397 51.18V58H67.7397V48.32Z" fill="#444444"/>
</svg>
