<svg width="121" height="121" viewBox="0 0 121 121" fill="none" xmlns="http://www.w3.org/2000/svg">
<circle cx="60.5" cy="60.5" r="60.5" fill="#00D465"/>
<path d="M57.5 62.18C57.5 69.18 56.22 74.56 53.66 78.32C51.1 82.04 47.56 83.9 43.04 83.9C38.52 83.9 34.98 82.04 32.42 78.32C29.86 74.56 28.58 69.18 28.58 62.18C28.58 58.7 28.9 55.62 29.54 52.94C30.22 50.22 31.18 47.94 32.42 46.1C33.7 44.26 35.22 42.86 36.98 41.9C38.78 40.94 40.8 40.46 43.04 40.46C47.56 40.46 51.1 42.34 53.66 46.1C56.22 49.82 57.5 55.18 57.5 62.18ZM50 62.18C50 60.02 49.88 58 49.64 56.12C49.4 54.24 49 52.62 48.44 51.26C47.92 49.86 47.22 48.76 46.34 47.96C45.46 47.16 44.36 46.76 43.04 46.76C41.72 46.76 40.6 47.16 39.68 47.96C38.8 48.76 38.08 49.86 37.52 51.26C37 52.62 36.62 54.24 36.38 56.12C36.18 58 36.08 60.02 36.08 62.18C36.08 64.34 36.18 66.36 36.38 68.24C36.62 70.12 37 71.76 37.52 73.16C38.08 74.52 38.8 75.6 39.68 76.4C40.6 77.2 41.72 77.6 43.04 77.6C44.36 77.6 45.46 77.2 46.34 76.4C47.22 75.6 47.92 74.52 48.44 73.16C49 71.76 49.4 70.12 49.64 68.24C49.88 66.36 50 64.34 50 62.18ZM77.0216 62.78C75.8616 62.78 74.7416 62.88 73.6616 63.08C72.5816 63.28 71.6016 63.58 70.7216 63.98C70.6816 64.3 70.6416 64.66 70.6016 65.06C70.6016 65.42 70.6016 65.78 70.6016 66.14C70.6016 67.74 70.7016 69.26 70.9016 70.7C71.1416 72.1 71.5216 73.34 72.0416 74.42C72.6016 75.46 73.3416 76.3 74.2616 76.94C75.2216 77.54 76.4016 77.84 77.8016 77.84C78.9616 77.84 79.9416 77.6 80.7416 77.12C81.5816 76.64 82.2616 76.02 82.7816 75.26C83.3016 74.5 83.6816 73.68 83.9216 72.8C84.1616 71.88 84.2816 71 84.2816 70.16C84.2816 67.76 83.7016 65.94 82.5416 64.7C81.3816 63.42 79.5416 62.78 77.0216 62.78ZM77.9216 57.02C80.4016 57.02 82.5016 57.38 84.2216 58.1C85.9816 58.78 87.4016 59.72 88.4816 60.92C89.5616 62.12 90.3416 63.52 90.8216 65.12C91.3416 66.68 91.6016 68.32 91.6016 70.04C91.6016 71.6 91.3216 73.2 90.7616 74.84C90.2416 76.48 89.4016 77.98 88.2416 79.34C87.1216 80.66 85.7016 81.76 83.9816 82.64C82.2616 83.48 80.2216 83.9 77.8616 83.9C73.1016 83.9 69.4616 82.34 66.9416 79.22C64.4616 76.06 63.2216 71.72 63.2216 66.2C63.2216 62.2 63.8016 58.66 64.9616 55.58C66.1616 52.46 67.8416 49.84 70.0016 47.72C72.2016 45.6 74.8416 44 77.9216 42.92C81.0416 41.8 84.5416 41.22 88.4216 41.18L88.8416 47.18C86.6816 47.22 84.6616 47.46 82.7816 47.9C80.9016 48.3 79.2216 48.94 77.7416 49.82C76.2616 50.7 74.9816 51.84 73.9016 53.24C72.8616 54.64 72.0616 56.36 71.5016 58.4C73.4616 57.48 75.6016 57.02 77.9216 57.02Z" fill="white"/>
</svg>
