<svg width="121" height="121" viewBox="0 0 121 121" fill="none" xmlns="http://www.w3.org/2000/svg">
<circle cx="60.5" cy="60.5" r="60.5" fill="#00D465"/>
<path d="M57.5 62.18C57.5 69.18 56.22 74.56 53.66 78.32C51.1 82.04 47.56 83.9 43.04 83.9C38.52 83.9 34.98 82.04 32.42 78.32C29.86 74.56 28.58 69.18 28.58 62.18C28.58 58.7 28.9 55.62 29.54 52.94C30.22 50.22 31.18 47.94 32.42 46.1C33.7 44.26 35.22 42.86 36.98 41.9C38.78 40.94 40.8 40.46 43.04 40.46C47.56 40.46 51.1 42.34 53.66 46.1C56.22 49.82 57.5 55.18 57.5 62.18ZM50 62.18C50 60.02 49.88 58 49.64 56.12C49.4 54.24 49 52.62 48.44 51.26C47.92 49.86 47.22 48.76 46.34 47.96C45.46 47.16 44.36 46.76 43.04 46.76C41.72 46.76 40.6 47.16 39.68 47.96C38.8 48.76 38.08 49.86 37.52 51.26C37 52.62 36.62 54.24 36.38 56.12C36.18 58 36.08 60.02 36.08 62.18C36.08 64.34 36.18 66.36 36.38 68.24C36.62 70.12 37 71.76 37.52 73.16C38.08 74.52 38.8 75.6 39.68 76.4C40.6 77.2 41.72 77.6 43.04 77.6C44.36 77.6 45.46 77.2 46.34 76.4C47.22 75.6 47.92 74.52 48.44 73.16C49 71.76 49.4 70.12 49.64 68.24C49.88 66.36 50 64.34 50 62.18ZM83.0816 71.12C83.0816 69.8 82.8216 68.62 82.3016 67.58C81.7816 66.54 80.8616 65.66 79.5416 64.94C78.2616 64.22 76.5216 63.68 74.3216 63.32C72.1616 62.96 69.4216 62.78 66.1016 62.78C66.5416 58.94 66.8816 55.3 67.1216 51.86C67.3616 48.38 67.5616 44.9 67.7216 41.42H88.9616V47.54H73.9016C73.8616 48.22 73.8016 49 73.7216 49.88C73.6816 50.72 73.6216 51.58 73.5416 52.46C73.5016 53.34 73.4416 54.18 73.3616 54.98C73.2816 55.78 73.2016 56.46 73.1216 57.02C79.0416 57.34 83.4016 58.7 86.2016 61.1C89.0416 63.46 90.4616 66.7 90.4616 70.82C90.4616 72.7 90.1416 74.44 89.5016 76.04C88.8616 77.64 87.8816 79.02 86.5616 80.18C85.2416 81.34 83.5816 82.26 81.5816 82.94C79.5816 83.58 77.2416 83.9 74.5616 83.9C73.4816 83.9 72.3816 83.82 71.2616 83.66C70.1416 83.5 69.0616 83.3 68.0216 83.06C67.0216 82.86 66.1216 82.64 65.3216 82.4C64.5216 82.16 63.9216 81.94 63.5216 81.74L64.9016 75.62C65.7416 76.02 66.9416 76.46 68.5016 76.94C70.1016 77.38 72.0416 77.6 74.3216 77.6C75.8816 77.6 77.2216 77.44 78.3416 77.12C79.4616 76.76 80.3616 76.28 81.0416 75.68C81.7616 75.08 82.2816 74.4 82.6016 73.64C82.9216 72.84 83.0816 72 83.0816 71.12Z" fill="white"/>
</svg>
