<svg width="121" height="121" viewBox="0 0 121 121" fill="none" xmlns="http://www.w3.org/2000/svg">
<circle cx="60.5" cy="60.5" r="60.5" fill="#00D465"/>
<path d="M57.5 62.18C57.5 69.18 56.22 74.56 53.66 78.32C51.1 82.04 47.56 83.9 43.04 83.9C38.52 83.9 34.98 82.04 32.42 78.32C29.86 74.56 28.58 69.18 28.58 62.18C28.58 58.7 28.9 55.62 29.54 52.94C30.22 50.22 31.18 47.94 32.42 46.1C33.7 44.26 35.22 42.86 36.98 41.9C38.78 40.94 40.8 40.46 43.04 40.46C47.56 40.46 51.1 42.34 53.66 46.1C56.22 49.82 57.5 55.18 57.5 62.18ZM50 62.18C50 60.02 49.88 58 49.64 56.12C49.4 54.24 49 52.62 48.44 51.26C47.92 49.86 47.22 48.76 46.34 47.96C45.46 47.16 44.36 46.76 43.04 46.76C41.72 46.76 40.6 47.16 39.68 47.96C38.8 48.76 38.08 49.86 37.52 51.26C37 52.62 36.62 54.24 36.38 56.12C36.18 58 36.08 60.02 36.08 62.18C36.08 64.34 36.18 66.36 36.38 68.24C36.62 70.12 37 71.76 37.52 73.16C38.08 74.52 38.8 75.6 39.68 76.4C40.6 77.2 41.72 77.6 43.04 77.6C44.36 77.6 45.46 77.2 46.34 76.4C47.22 75.6 47.92 74.52 48.44 73.16C49 71.76 49.4 70.12 49.64 68.24C49.88 66.36 50 64.34 50 62.18ZM80.3216 50.36C79.3616 51.52 78.3616 52.76 77.3216 54.08C76.3216 55.4 75.3416 56.78 74.3816 58.22C73.4216 59.66 72.5016 61.14 71.6216 62.66C70.7416 64.14 69.9416 65.62 69.2216 67.1H80.3216V50.36ZM87.4016 41.42V67.1H92.0816V73.04H87.4016V83H80.3216V73.04H62.0816V67.88C62.8816 66.12 63.9416 64.1 65.2616 61.82C66.6216 59.54 68.1216 57.2 69.7616 54.8C71.4016 52.4 73.1416 50.04 74.9816 47.72C76.8216 45.4 78.6616 43.3 80.5016 41.42H87.4016Z" fill="white"/>
</svg>
