<svg width="35" height="35" viewBox="0 0 35 35" fill="none" xmlns="http://www.w3.org/2000/svg">
<path d="M33.9749 13.1759H22.6255V4.0562H33.9749C34.541 4.0562 35 3.59723 35 3.03111C35 2.46499 34.541 2.00603 33.9749 2.00603H22.4767C22.1762 1.24644 21.4351 0.70752 20.5699 0.70752H18.5197C18.1465 0.70752 17.7964 0.808319 17.4946 0.983335C17.1929 0.808319 16.8428 0.70752 16.4696 0.70752H14.4194C13.5542 0.70752 12.8131 1.24644 12.5126 2.00603H1.02508C0.458964 2.00603 0 2.46499 0 3.03111C0 3.59723 0.458964 4.0562 1.02508 4.0562H12.3692V13.1759H1.02508C0.458964 13.1759 0 13.6349 0 14.201C0 14.7671 0.458964 15.2261 1.02508 15.2261H12.5126C12.8131 15.9856 13.5542 16.5245 14.4194 16.5245H16.4696C16.8428 16.5245 17.1929 16.4237 17.4946 16.2487C17.7964 16.4237 18.1465 16.5245 18.5197 16.5245H20.5699C21.435 16.5245 22.1762 15.9856 22.4767 15.2261H33.9749C34.541 15.2261 35 14.7671 35 14.201C35 13.6349 34.541 13.1759 33.9749 13.1759ZM14.4194 14.4743L14.4192 2.75769H16.4696V14.4743H14.4194ZM20.5699 14.4743H18.5197V2.75769H20.5699V14.4743Z" fill="#00D465"/>
<path d="M19.2395 20.2638C18.2919 19.2981 17.9083 19.1213 17.4944 19.1213C17.0806 19.1213 16.697 19.2981 15.7494 20.2638C15.1504 20.8742 14.4948 21.6374 13.9032 22.4126C12.7045 23.9836 11.2756 26.241 11.2756 28.0738C11.2756 31.5029 14.0653 34.2927 17.4944 34.2927C20.9235 34.2927 23.7133 31.5029 23.7133 28.0738C23.7133 26.241 22.2844 23.9836 21.0856 22.4126C20.494 21.6373 19.8384 20.8742 19.2395 20.2638ZM17.4944 32.2425C15.1958 32.2425 13.3258 30.3725 13.3258 28.0738C13.3258 27.1674 14.0486 25.6663 15.3088 23.9554C16.1642 22.7942 17.0012 21.8941 17.4944 21.4227C17.9877 21.8941 18.8247 22.7942 19.6801 23.9554C20.9403 25.6663 21.6631 27.1674 21.6631 28.0738C21.6631 30.3725 19.793 32.2425 17.4944 32.2425Z" fill="#00D465"/>
</svg>
