<svg width="35" height="35" viewBox="0 0 35 35" fill="none" xmlns="http://www.w3.org/2000/svg">
<path d="M7.47935 6.0903H1.0294C0.460809 6.0903 0 5.62918 0 5.0609C0 4.49261 0.460809 4.03149 1.0294 4.03149H7.47935C8.04794 4.03149 8.50875 4.49261 8.50875 5.0609C8.50875 5.62918 8.04794 6.0903 7.47935 6.0903Z" fill="#00D465"/>
<path d="M11.1654 9.77566C8.56538 9.77566 6.45023 7.66051 6.45023 5.0607C6.45023 2.46037 8.56538 0.345215 11.1654 0.345215C13.7654 0.345215 15.8806 2.46037 15.8806 5.0607C15.8806 7.66058 13.7654 9.77566 11.1654 9.77566ZM11.1654 2.4041C9.70065 2.4041 8.50903 3.59594 8.50903 5.0607C8.50903 6.52546 9.70065 7.71677 11.1654 7.71677C12.6302 7.71677 13.8218 6.52546 13.8218 5.0607C13.8218 3.59594 12.6302 2.4041 11.1654 2.4041Z" fill="#00D465"/>
<path d="M33.9704 6.0903H18.5849C18.0163 6.0903 17.5555 5.62918 17.5555 5.0609C17.5555 4.49261 18.0163 4.03149 18.5849 4.03149H33.9703C34.5389 4.03149 34.9997 4.49261 34.9997 5.0609C34.9997 5.62918 34.539 6.0903 33.9704 6.0903Z" fill="#00D465"/>
<path d="M24.9865 22.2151C22.3863 22.2151 20.2713 20.0999 20.2713 17.5001C20.2713 14.9003 22.3864 12.7852 24.9865 12.7852C27.5865 12.7852 29.7016 14.9003 29.7016 17.5001C29.7016 20.0999 27.5866 22.2151 24.9865 22.2151ZM24.9865 14.844C23.5217 14.844 22.3301 16.0354 22.3301 17.5001C22.3301 18.9649 23.5217 20.1562 24.9865 20.1562C26.4512 20.1562 27.6428 18.9649 27.6428 17.5001C27.6428 16.0354 26.4512 14.844 24.9865 14.844Z" fill="#00D465"/>
<path d="M17.5668 18.5295H1.0294C0.460809 18.5295 0 18.0684 0 17.5001C0 16.9318 0.460809 16.4707 1.0294 16.4707H17.5668C18.1354 16.4707 18.5962 16.9318 18.5962 17.5001C18.5962 18.0684 18.1354 18.5295 17.5668 18.5295Z" fill="#00D465"/>
<path d="M33.9702 18.5295H28.672C28.1034 18.5295 27.6425 18.0684 27.6425 17.5001C27.6425 16.9318 28.1034 16.4707 28.672 16.4707H33.9702C34.5388 16.4707 34.9996 16.9318 34.9996 17.5001C34.9996 18.0684 34.5388 18.5295 33.9702 18.5295Z" fill="#00D465"/>
<path d="M10.0133 34.6548C7.41331 34.6548 5.29816 32.5397 5.29816 29.9393C5.29816 27.3395 7.41331 25.2244 10.0133 25.2244C12.6134 25.2244 14.7285 27.3395 14.7285 29.9393C14.7285 32.5397 12.6134 34.6548 10.0133 34.6548ZM10.0133 27.2833C8.54858 27.2833 7.35696 28.4746 7.35696 29.9393C7.35696 31.4041 8.54858 32.5959 10.0133 32.5959C11.4781 32.5959 12.6697 31.4041 12.6697 29.9393C12.6697 28.4746 11.4781 27.2833 10.0133 27.2833Z" fill="#00D465"/>
<path d="M33.9705 30.9687H17.4332C16.8646 30.9687 16.4038 30.5076 16.4038 29.9393C16.4038 29.371 16.8646 28.9099 17.4332 28.9099H33.9705C34.5391 28.9099 34.9999 29.371 34.9999 29.9393C34.9999 30.5076 34.5391 30.9687 33.9705 30.9687Z" fill="#00D465"/>
<path d="M6.32767 30.9688H1.0294C0.460809 30.9688 0 30.5077 0 29.9393C0 29.371 0.460809 28.9099 1.0294 28.9099H6.32767C6.89626 28.9099 7.35707 29.371 7.35707 29.9393C7.35707 30.5077 6.89626 30.9688 6.32767 30.9688Z" fill="#00D465"/>
</svg>
