<svg width="182" height="182" viewBox="0 0 182 182" fill="none" xmlns="http://www.w3.org/2000/svg">
<circle cx="91" cy="91" r="89.5" stroke="#00D465" stroke-width="3"/>
<path d="M44.6346 114.9C43.5546 114.9 42.4346 114.82 41.2746 114.66C40.1546 114.54 39.0746 114.36 38.0346 114.12C37.0346 113.92 36.1146 113.7 35.2746 113.46C34.4346 113.18 33.7946 112.92 33.3546 112.68L34.7946 106.5C35.6346 106.9 36.8546 107.36 38.4546 107.88C40.0546 108.36 42.0346 108.6 44.3946 108.6C47.5546 108.6 49.8346 108 51.2346 106.8C52.6346 105.56 53.3346 103.92 53.3346 101.88C53.3346 100.56 53.0546 99.46 52.4946 98.58C51.9746 97.7 51.2346 97 50.2746 96.48C49.3546 95.92 48.2746 95.54 47.0346 95.34C45.8346 95.1 44.5546 94.98 43.1946 94.98H40.7346V89.1H43.7346C44.6546 89.1 45.5746 89.02 46.4946 88.86C47.4546 88.66 48.3146 88.34 49.0746 87.9C49.8346 87.42 50.4546 86.8 50.9346 86.04C51.4146 85.28 51.6546 84.3 51.6546 83.1C51.6546 82.14 51.4746 81.32 51.1146 80.64C50.7546 79.96 50.2746 79.4 49.6746 78.96C49.1146 78.52 48.4546 78.2 47.6946 78C46.9346 77.8 46.1346 77.7 45.2946 77.7C43.4946 77.7 41.8946 77.98 40.4946 78.54C39.0946 79.06 37.8546 79.66 36.7746 80.34L34.1346 74.94C34.6946 74.58 35.3746 74.2 36.1746 73.8C36.9746 73.4 37.8546 73.02 38.8146 72.66C39.8146 72.3 40.8746 72.02 41.9946 71.82C43.1146 71.58 44.2946 71.46 45.5346 71.46C47.8546 71.46 49.8546 71.74 51.5346 72.3C53.2146 72.86 54.5946 73.66 55.6746 74.7C56.7946 75.7 57.6146 76.9 58.1346 78.3C58.6946 79.66 58.9746 81.16 58.9746 82.8C58.9746 84.72 58.4346 86.44 57.3546 87.96C56.3146 89.48 54.9546 90.64 53.2746 91.44C55.4346 92.2 57.2146 93.46 58.6146 95.22C60.0546 96.98 60.7746 99.24 60.7746 102C60.7746 103.84 60.4546 105.56 59.8146 107.16C59.1746 108.72 58.1946 110.08 56.8746 111.24C55.5546 112.36 53.8746 113.26 51.8346 113.94C49.8346 114.58 47.4346 114.9 44.6346 114.9ZM96.0762 93.18C96.0762 100.18 94.7962 105.56 92.2362 109.32C89.6762 113.04 86.1362 114.9 81.6162 114.9C77.0962 114.9 73.5562 113.04 70.9962 109.32C68.4362 105.56 67.1562 100.18 67.1562 93.18C67.1562 89.7 67.4762 86.62 68.1162 83.94C68.7962 81.22 69.7562 78.94 70.9962 77.1C72.2762 75.26 73.7962 73.86 75.5562 72.9C77.3562 71.94 79.3762 71.46 81.6162 71.46C86.1362 71.46 89.6762 73.34 92.2362 77.1C94.7962 80.82 96.0762 86.18 96.0762 93.18ZM88.5762 93.18C88.5762 91.02 88.4562 89 88.2162 87.12C87.9762 85.24 87.5762 83.62 87.0162 82.26C86.4962 80.86 85.7962 79.76 84.9162 78.96C84.0362 78.16 82.9362 77.76 81.6162 77.76C80.2962 77.76 79.1762 78.16 78.2562 78.96C77.3762 79.76 76.6562 80.86 76.0962 82.26C75.5762 83.62 75.1962 85.24 74.9562 87.12C74.7562 89 74.6562 91.02 74.6562 93.18C74.6562 95.34 74.7562 97.36 74.9562 99.24C75.1962 101.12 75.5762 102.76 76.0962 104.16C76.6562 105.52 77.3762 106.6 78.2562 107.4C79.1762 108.2 80.2962 108.6 81.6162 108.6C82.9362 108.6 84.0362 108.2 84.9162 107.4C85.7962 106.6 86.4962 105.52 87.0162 104.16C87.5762 102.76 87.9762 101.12 88.2162 99.24C88.4562 97.36 88.5762 95.34 88.5762 93.18ZM121.658 82.86C121.658 86.5 120.718 89.3 118.838 91.26C116.998 93.22 114.578 94.2 111.578 94.2C110.098 94.2 108.738 93.96 107.498 93.48C106.258 92.96 105.198 92.22 104.318 91.26C103.438 90.3 102.738 89.12 102.218 87.72C101.738 86.28 101.498 84.66 101.498 82.86C101.498 79.18 102.418 76.38 104.258 74.46C106.138 72.5 108.578 71.52 111.578 71.52C114.578 71.52 116.998 72.5 118.838 74.46C120.718 76.38 121.658 79.18 121.658 82.86ZM115.958 82.86C115.958 80.74 115.558 79.16 114.758 78.12C113.998 77.04 112.938 76.5 111.578 76.5C110.218 76.5 109.158 77.04 108.398 78.12C107.638 79.16 107.258 80.74 107.258 82.86C107.258 84.98 107.638 86.58 108.398 87.66C109.158 88.7 110.218 89.22 111.578 89.22C112.938 89.22 113.998 88.7 114.758 87.66C115.558 86.58 115.958 84.98 115.958 82.86ZM133.838 72.42H140.738L117.278 114H110.378L133.838 72.42ZM149.678 103.62C149.678 107.26 148.738 110.06 146.858 112.02C145.018 113.98 142.598 114.96 139.598 114.96C138.118 114.96 136.758 114.7 135.518 114.18C134.278 113.7 133.218 112.98 132.338 112.02C131.458 111.06 130.758 109.88 130.238 108.48C129.758 107.04 129.518 105.42 129.518 103.62C129.518 99.94 130.438 97.14 132.278 95.22C134.158 93.26 136.598 92.28 139.598 92.28C142.598 92.28 145.018 93.26 146.858 95.22C148.738 97.14 149.678 99.94 149.678 103.62ZM143.978 103.62C143.978 101.5 143.578 99.92 142.778 98.88C142.018 97.8 140.958 97.26 139.598 97.26C138.238 97.26 137.178 97.8 136.418 98.88C135.658 99.92 135.278 101.5 135.278 103.62C135.278 105.74 135.658 107.34 136.418 108.42C137.178 109.46 138.238 109.98 139.598 109.98C140.958 109.98 142.018 109.46 142.778 108.42C143.578 107.34 143.978 105.74 143.978 103.62Z" fill="#00D465"/>
</svg>
