<svg width="101" height="120" viewBox="0 0 101 120" fill="none" xmlns="http://www.w3.org/2000/svg">
<path d="M65.7016 7.68448L65.7028 7.6819L53.7429 0.776982C52.7407 -0.0571582 51.2674 -0.298564 49.9793 0.445107L5.18672 26.306C2.49656 27.8592 0.839294 30.7296 0.839294 33.836V109.417C0.839294 110.637 1.47679 111.632 2.38007 112.201L2.37844 112.205L2.43445 112.237C2.47148 112.259 2.50851 112.281 2.54625 112.302L14.5244 119.217C15.5269 120.055 17.0025 120.298 18.293 119.553L63.0855 93.6924C65.7757 92.1392 67.433 89.2688 67.433 86.1624V10.5818C67.433 9.27729 66.7055 8.22823 65.7016 7.68448Z" fill="#009728"/>
<path d="M17.6942 33.5865L62.4868 7.72556C64.6857 6.45619 67.434 8.04291 67.434 10.5819V86.1624C67.434 89.2688 65.7767 92.1392 63.0866 93.6924L18.294 119.553C16.0953 120.823 13.3468 119.236 13.3468 116.697V41.1165C13.347 38.0101 15.0041 35.1397 17.6942 33.5865Z" fill="#00D465"/>
<path d="M18.6088 42.4121L62.7247 16.9416V30.6582L18.6088 56.1284V42.4121Z" fill="#66F2A9"/>
<path d="M32.8281 57.1467L32.8284 57.1462L30.4921 55.8014L30.4919 55.8016C29.5696 55.313 28.3851 55.3826 27.0927 56.1288C24.1523 57.8264 21.7684 62.3812 21.7684 66.3019C21.7684 68.4574 22.4898 69.9705 23.6273 70.6158L23.6266 70.6174L25.761 71.8497L25.7631 71.8453C26.7013 72.4062 27.9323 72.3656 29.2811 71.5868C32.2216 69.889 34.6054 65.3344 34.6054 61.4137C34.6059 59.3098 33.9189 57.817 32.8281 57.1467Z" fill="url(#paint0_linear_1_212)"/>
<path d="M34.6056 61.4137C34.6056 57.4928 32.2217 55.6909 29.2813 57.3885C26.3408 59.0863 23.957 63.6409 23.957 67.5616C23.957 71.4824 26.3408 73.2845 29.2813 71.5867C32.2217 69.8891 34.6056 65.3345 34.6056 61.4137Z" fill="url(#paint1_linear_1_212)"/>
<path d="M46.196 49.4088L46.1962 49.4083L43.86 48.0635L43.8597 48.064C42.9375 47.5753 41.7529 47.6449 40.4606 48.3911C37.5201 50.089 35.1363 54.6436 35.1363 58.5642C35.1363 60.7197 35.8577 62.2329 36.9951 62.8781L36.9944 62.8797L39.1289 64.1121L39.131 64.1074C40.0692 64.6683 41.3001 64.6277 42.649 63.8489C45.5894 62.1511 47.9732 57.5965 47.9732 53.6756C47.9737 51.5716 47.2865 50.0791 46.196 49.4088Z" fill="url(#paint2_linear_1_212)"/>
<path d="M47.9734 53.6756C47.9734 49.7548 45.5896 47.9526 42.6491 49.6505C39.7087 51.3483 37.3248 55.9029 37.3248 59.8235C37.3248 63.7441 39.7087 65.5462 42.6491 63.8487C45.5896 62.1511 47.9734 57.5965 47.9734 53.6756Z" fill="url(#paint3_linear_1_212)"/>
<path d="M59.5679 41.6877L59.5682 41.6872L57.2319 40.3423L57.2317 40.3426C56.3094 39.8539 55.1249 39.9235 53.8325 40.6698C50.8921 42.3676 48.5082 46.9222 48.5082 50.8431C48.5082 52.9986 49.2296 54.5117 50.3671 55.157L50.3664 55.1586L52.5008 56.3909L52.5029 56.3865C53.4411 56.9474 54.6721 56.9068 56.0209 56.128C58.9614 54.4302 61.3452 49.8756 61.3452 45.9547C61.3454 43.8507 60.6585 42.358 59.5679 41.6877Z" fill="url(#paint4_linear_1_212)"/>
<path d="M61.3454 45.9547C61.3454 42.034 58.9616 40.2319 56.0211 41.9295C53.0807 43.6273 50.6968 48.1819 50.6968 52.1025C50.6968 56.0232 53.0807 57.8253 56.0211 56.1277C58.9616 54.4301 61.3454 49.8753 61.3454 45.9547Z" fill="url(#paint5_linear_1_212)"/>
<path d="M32.8281 75.3919L32.8284 75.3914L30.4921 74.0466L30.4919 74.0468C29.5696 73.5581 28.3851 73.6277 27.0927 74.374C24.1523 76.0716 21.7684 80.6264 21.7684 84.547C21.7684 86.7026 22.4898 88.2157 23.6273 88.8609L23.6266 88.8626L25.761 90.0949L25.7631 90.0902C26.7013 90.6511 27.9323 90.6106 29.2811 89.8317C32.2216 88.1339 34.6054 83.5793 34.6054 79.6587C34.6059 77.5547 33.9189 76.062 32.8281 75.3919Z" fill="url(#paint6_linear_1_212)"/>
<path d="M34.6056 79.6586C34.6056 75.7378 32.2217 73.9357 29.2813 75.6335C26.3408 77.3313 23.957 81.8859 23.957 85.8065C23.957 89.7271 26.3408 91.5293 29.2813 89.8317C32.2217 88.1341 34.6056 83.5795 34.6056 79.6586Z" fill="url(#paint7_linear_1_212)"/>
<path d="M46.196 67.6538L46.1962 67.6533L43.86 66.3085L43.8597 66.309C42.9375 65.8203 41.7529 65.8899 40.4606 66.6361C37.5201 68.334 35.1363 72.8886 35.1363 76.8092C35.1363 78.9647 35.8577 80.4779 36.9951 81.1231L36.9944 81.1247L39.1289 82.3571L39.131 82.3524C40.0692 82.9132 41.3001 82.8727 42.649 82.0939C45.5894 80.3961 47.9732 75.8415 47.9732 71.9208C47.9737 69.8168 47.2865 68.3241 46.196 67.6538Z" fill="url(#paint8_linear_1_212)"/>
<path d="M47.9734 71.9209C47.9734 68 45.5896 66.1979 42.6491 67.8957C39.7087 69.5935 37.3248 74.1481 37.3248 78.0687C37.3248 81.9894 39.7087 83.7917 42.6491 82.0939C45.5896 80.3961 47.9734 75.8415 47.9734 71.9209Z" fill="url(#paint9_linear_1_212)"/>
<path d="M59.5679 59.9325L59.5682 59.9321L57.2319 58.5872L57.2317 58.5875C56.3094 58.0988 55.1249 58.1684 53.8325 58.9146C50.8921 60.6125 48.5082 65.1671 48.5082 69.0879C48.5082 71.2435 49.2296 72.7566 50.3671 73.4018L50.3664 73.4035L52.5008 74.6358L52.5029 74.6313C53.4411 75.1922 54.6721 75.1517 56.0209 74.3728C58.9614 72.675 61.3452 68.1204 61.3452 64.1996C61.3454 62.0956 60.6585 60.6028 59.5679 59.9325Z" fill="url(#paint10_linear_1_212)"/>
<path d="M61.3454 64.1996C61.3454 60.279 58.9616 58.4769 56.0211 60.1744C53.0807 61.8722 50.6968 66.4269 50.6968 70.3475C50.6968 74.2683 53.0807 76.0705 56.0211 74.3726C58.9616 72.6751 61.3454 68.1205 61.3454 64.1996Z" fill="url(#paint11_linear_1_212)"/>
<path d="M32.8281 93.6369L32.8284 93.6364L30.4921 92.2916L30.4919 92.2918C29.5696 91.8031 28.3851 91.8727 27.0927 92.619C24.1523 94.3166 21.7684 98.8714 21.7684 102.792C21.7684 104.948 22.4898 106.461 23.6273 107.106L23.6266 107.108L25.761 108.34L25.7631 108.335C26.7013 108.896 27.9323 108.856 29.2811 108.077C32.2216 106.379 34.6054 101.824 34.6054 97.9037C34.6059 95.7999 33.9189 94.3072 32.8281 93.6369Z" fill="url(#paint12_linear_1_212)"/>
<path d="M34.6056 97.9039C34.6056 93.9833 32.2217 92.181 29.2813 93.8788C26.3408 95.5766 23.957 100.131 23.957 104.052C23.957 107.973 26.3408 109.775 29.2813 108.077C32.2217 106.379 34.6056 101.825 34.6056 97.9039Z" fill="url(#paint13_linear_1_212)"/>
<path d="M46.196 85.8987L46.1962 85.8982L43.86 84.5534L43.8597 84.5538C42.9375 84.0652 41.7529 84.1348 40.4606 84.881C37.5201 86.5788 35.1363 91.1334 35.1363 95.0541C35.1363 97.2096 35.8577 98.7227 36.9951 99.368L36.9944 99.3696L39.1289 100.602L39.131 100.597C40.0692 101.158 41.3001 101.118 42.649 100.339C45.5894 98.6409 47.9732 94.0863 47.9732 90.1657C47.9737 88.0617 47.2865 86.569 46.196 85.8987Z" fill="url(#paint14_linear_1_212)"/>
<path d="M47.9734 90.1657C47.9734 86.245 45.5896 84.4429 42.6491 86.1405C39.7087 87.8383 37.3248 92.3929 37.3248 96.3135C37.3248 100.234 39.7087 102.037 42.6491 100.339C45.5896 98.6411 47.9734 94.0863 47.9734 90.1657Z" fill="url(#paint15_linear_1_212)"/>
<path d="M59.5679 78.1775L59.5682 78.177L57.2319 76.8322L57.2317 76.8324C56.3094 76.3437 55.1249 76.4133 53.8325 77.1596C50.8921 78.8574 48.5082 83.412 48.5082 87.3326C48.5082 89.4882 49.2296 91.0013 50.3671 91.6465L50.3664 91.6482L52.5008 92.8805L52.5029 92.8761C53.4411 93.4369 54.6721 93.3964 56.0209 92.6175C58.9614 90.9197 61.3452 86.3651 61.3452 82.4445C61.3454 80.3405 60.6585 78.8478 59.5679 78.1775Z" fill="url(#paint16_linear_1_212)"/>
<path d="M61.3454 82.4445C61.3454 78.5237 58.9616 76.7216 56.0211 78.4194C53.0807 80.1172 50.6968 84.6718 50.6968 88.5924C50.6968 92.513 53.0807 94.3152 56.0211 92.6176C58.9616 90.92 61.3454 86.3654 61.3454 82.4445Z" fill="url(#paint17_linear_1_212)"/>
<path d="M86.7162 50.6718L86.7171 50.6699L78.2444 45.7921L78.244 45.7935C74.8994 44.0212 70.6033 44.2736 65.9161 46.9799C55.2515 53.1372 46.6061 69.6557 46.6061 83.8752C46.6061 91.6928 49.2227 97.1807 53.3479 99.5207L53.3451 99.527L61.0865 103.996L61.0945 103.98C64.4972 106.014 68.9613 105.867 73.8534 103.042C84.5182 96.8851 93.1633 80.3666 93.1633 66.1471C93.1631 58.5163 90.6715 53.1027 86.7162 50.6718Z" fill="url(#paint18_linear_1_212)"/>
<path d="M89.3108 83.9179C95.7287 68.8555 94.0235 53.7016 85.5022 50.0708C76.9808 46.44 64.8702 55.7071 58.4523 70.7695C52.0344 85.8319 53.7396 100.986 62.2609 104.617C70.7823 108.247 82.8929 98.9803 89.3108 83.9179Z" fill="#F7E041"/>
<path d="M85.8717 76.4287L80.8442 73.4817C79.8237 72.8423 78.4779 72.8454 77.115 73.0319C77.4853 72.6056 77.9564 72.2254 78.5042 71.9095C80.3089 70.8675 83.2334 70.548 85.5356 70.961L87.6823 63.7066L82.5947 60.7242C82.066 60.5754 81.4847 60.495 80.8685 60.4748V58.4728L75.781 55.4904L71.6431 57.8793V63.9773C67.6606 67.1477 65.1717 71.779 65.1717 76.3835C65.1717 79.4958 66.2232 80.785 67.6887 81.2083L71.3667 83.3318C72.4435 84.5161 74.1656 84.4868 75.901 84.1938C75.4268 84.8604 74.7474 85.4571 73.9144 85.9382C71.6431 87.2496 68.2517 87.3825 66.0117 86.1035L63.8025 93.311L68.8901 96.2934C69.706 96.7155 70.6374 96.9672 71.6431 97.0514V99.6115L76.7306 102.594L80.8688 100.205V93.8578C84.7889 90.8892 87.7139 86.2136 87.7139 81.1113C87.7137 78.4596 86.9742 77.0847 85.8717 76.4287Z" fill="url(#paint19_linear_1_212)"/>
<path d="M80.867 93.8577V100.205L76.7292 102.594V96.2052C73.8046 97.3543 70.9731 97.3712 68.8886 96.2933L71.0978 89.0856C73.3378 90.3643 76.7292 90.2317 79.0005 88.9204C80.6805 87.9505 81.7385 86.5101 81.7385 84.9751C81.7385 80.0385 70.2578 89.6537 70.2578 79.3658C70.2578 74.7613 72.7467 70.1301 76.7292 66.9597V60.8617L80.867 58.4727V64.5292C83.4185 63.4295 85.8452 63.19 87.6806 63.7065L85.5339 70.9609C83.2314 70.5479 80.3071 70.8674 78.5024 71.9094C77.1337 72.6997 76.2316 73.8843 76.2316 75.2118C76.2316 80.0237 87.7122 70.6576 87.7122 81.1115C87.7122 86.2138 84.7874 90.8891 80.867 93.8577Z" fill="#06DAAE"/>
<path d="M71.6427 63.9771L76.7303 66.9595V60.8615L71.6427 57.8791V63.9771Z" fill="#236568"/>
<path d="M71.0993 89.0857L66.0117 86.1033L63.8025 93.3108L68.89 96.2932L71.0993 89.0857Z" fill="#2F878A"/>
<defs>
<linearGradient id="paint0_linear_1_212" x1="28.5484" y1="63.2323" x2="30.7368" y2="59.4422" gradientUnits="userSpaceOnUse">
<stop stop-color="#1E8F54"/>
<stop offset="1" stop-color="#00D465"/>
</linearGradient>
<linearGradient id="paint1_linear_1_212" x1="29.2813" y1="74.867" x2="29.2813" y2="58.9016" gradientUnits="userSpaceOnUse">
<stop stop-color="#A996EB"/>
<stop offset="1" stop-color="#C5BAEB"/>
</linearGradient>
<linearGradient id="paint2_linear_1_212" x1="41.9163" y1="55.4941" x2="44.1044" y2="51.704" gradientUnits="userSpaceOnUse">
<stop stop-color="#00D465"/>
<stop offset="1" stop-color="#12A458"/>
</linearGradient>
<linearGradient id="paint3_linear_1_212" x1="42.6491" y1="64.4878" x2="42.6491" y2="49.0118" gradientUnits="userSpaceOnUse">
<stop stop-color="#A996EB"/>
<stop offset="1" stop-color="#C5BAEB"/>
</linearGradient>
<linearGradient id="paint4_linear_1_212" x1="55.288" y1="47.7732" x2="57.4764" y2="43.9829" gradientUnits="userSpaceOnUse">
<stop stop-color="#329561"/>
<stop offset="1" stop-color="#00D465"/>
</linearGradient>
<linearGradient id="paint5_linear_1_212" x1="56.0211" y1="56.7668" x2="56.0211" y2="41.2906" gradientUnits="userSpaceOnUse">
<stop stop-color="#A996EB"/>
<stop offset="1" stop-color="#C5BAEB"/>
</linearGradient>
<linearGradient id="paint6_linear_1_212" x1="28.5484" y1="81.4772" x2="30.7368" y2="77.6871" gradientUnits="userSpaceOnUse">
<stop stop-color="#148047"/>
<stop offset="1" stop-color="#00D465"/>
</linearGradient>
<linearGradient id="paint7_linear_1_212" x1="29.2813" y1="90.4708" x2="29.2813" y2="74.9948" gradientUnits="userSpaceOnUse">
<stop stop-color="#A996EB"/>
<stop offset="1" stop-color="#C5BAEB"/>
</linearGradient>
<linearGradient id="paint8_linear_1_212" x1="41.9163" y1="73.7391" x2="44.1044" y2="69.949" gradientUnits="userSpaceOnUse">
<stop stop-color="#00D465"/>
<stop offset="1" stop-color="#12A458"/>
</linearGradient>
<linearGradient id="paint9_linear_1_212" x1="42.6491" y1="82.7328" x2="42.6491" y2="67.2568" gradientUnits="userSpaceOnUse">
<stop stop-color="#A996EB"/>
<stop offset="1" stop-color="#C5BAEB"/>
</linearGradient>
<linearGradient id="paint10_linear_1_212" x1="55.288" y1="66.0181" x2="57.4764" y2="62.228" gradientUnits="userSpaceOnUse">
<stop stop-color="#19B664"/>
<stop offset="1" stop-color="#53D390"/>
</linearGradient>
<linearGradient id="paint11_linear_1_212" x1="56.0211" y1="75.0118" x2="56.0211" y2="59.5355" gradientUnits="userSpaceOnUse">
<stop stop-color="#A996EB"/>
<stop offset="1" stop-color="#C5BAEB"/>
</linearGradient>
<linearGradient id="paint12_linear_1_212" x1="28.5484" y1="99.7222" x2="30.7368" y2="95.9321" gradientUnits="userSpaceOnUse">
<stop stop-color="#148047"/>
<stop offset="1" stop-color="#00D465"/>
</linearGradient>
<linearGradient id="paint13_linear_1_212" x1="29.2813" y1="108.716" x2="29.2813" y2="93.2399" gradientUnits="userSpaceOnUse">
<stop stop-color="#A996EB"/>
<stop offset="1" stop-color="#C5BAEB"/>
</linearGradient>
<linearGradient id="paint14_linear_1_212" x1="41.9163" y1="91.9842" x2="44.1044" y2="88.1939" gradientUnits="userSpaceOnUse">
<stop stop-color="#219B5B"/>
<stop offset="1" stop-color="#48DB8E"/>
</linearGradient>
<linearGradient id="paint15_linear_1_212" x1="42.6491" y1="100.978" x2="42.6491" y2="85.5016" gradientUnits="userSpaceOnUse">
<stop stop-color="#A996EB"/>
<stop offset="1" stop-color="#C5BAEB"/>
</linearGradient>
<linearGradient id="paint16_linear_1_212" x1="55.288" y1="84.263" x2="57.4764" y2="80.4729" gradientUnits="userSpaceOnUse">
<stop stop-color="#43386B"/>
<stop offset="1" stop-color="#7662BD"/>
</linearGradient>
<linearGradient id="paint17_linear_1_212" x1="56.0211" y1="93.2567" x2="56.0211" y2="77.7805" gradientUnits="userSpaceOnUse">
<stop stop-color="#A996EB"/>
<stop offset="1" stop-color="#C5BAEB"/>
</linearGradient>
<linearGradient id="paint18_linear_1_212" x1="71.1947" y1="72.7419" x2="79.1308" y2="58.9963" gradientUnits="userSpaceOnUse">
<stop stop-color="#FFA538"/>
<stop offset="1" stop-color="#FFC538"/>
</linearGradient>
<linearGradient id="paint19_linear_1_212" x1="78.4749" y1="75.1987" x2="80.9515" y2="70.9089" gradientUnits="userSpaceOnUse">
<stop stop-color="#236568"/>
<stop offset="1" stop-color="#2F878A"/>
</linearGradient>
</defs>
</svg>
