<svg width="182" height="182" viewBox="0 0 182 182" fill="none" xmlns="http://www.w3.org/2000/svg">
<circle cx="91" cy="91" r="89.5" stroke="#00D465" stroke-width="3"/>
<path d="M15.4861 114C15.7261 110.96 16.2661 107.76 17.1061 104.4C17.9461 101.04 18.9661 97.78 20.1661 94.62C21.4061 91.42 22.7461 88.44 24.1861 85.68C25.6661 82.88 27.1261 80.54 28.5661 78.66H9.42609V72.42H37.2061V77.94C35.8861 79.42 34.4461 81.44 32.8861 84C31.3261 86.56 29.8461 89.46 28.4461 92.7C27.0461 95.9 25.8261 99.34 24.7861 103.02C23.7861 106.7 23.1661 110.36 22.9261 114H15.4861ZM71.8477 93.18C71.8477 100.18 70.5677 105.56 68.0077 109.32C65.4477 113.04 61.9077 114.9 57.3877 114.9C52.8677 114.9 49.3277 113.04 46.7677 109.32C44.2077 105.56 42.9277 100.18 42.9277 93.18C42.9277 89.7 43.2477 86.62 43.8877 83.94C44.5677 81.22 45.5277 78.94 46.7677 77.1C48.0477 75.26 49.5677 73.86 51.3277 72.9C53.1277 71.94 55.1477 71.46 57.3877 71.46C61.9077 71.46 65.4477 73.34 68.0077 77.1C70.5677 80.82 71.8477 86.18 71.8477 93.18ZM64.3477 93.18C64.3477 91.02 64.2277 89 63.9877 87.12C63.7477 85.24 63.3477 83.62 62.7877 82.26C62.2677 80.86 61.5677 79.76 60.6877 78.96C59.8077 78.16 58.7077 77.76 57.3877 77.76C56.0677 77.76 54.9477 78.16 54.0277 78.96C53.1477 79.76 52.4277 80.86 51.8677 82.26C51.3477 83.62 50.9677 85.24 50.7277 87.12C50.5277 89 50.4277 91.02 50.4277 93.18C50.4277 95.34 50.5277 97.36 50.7277 99.24C50.9677 101.12 51.3477 102.76 51.8677 104.16C52.4277 105.52 53.1477 106.6 54.0277 107.4C54.9477 108.2 56.0677 108.6 57.3877 108.6C58.7077 108.6 59.8077 108.2 60.6877 107.4C61.5677 106.6 62.2677 105.52 62.7877 104.16C63.3477 102.76 63.7477 101.12 63.9877 99.24C64.2277 97.36 64.3477 95.34 64.3477 93.18ZM105.949 93.18C105.949 100.18 104.669 105.56 102.109 109.32C99.5492 113.04 96.0092 114.9 91.4892 114.9C86.9692 114.9 83.4292 113.04 80.8692 109.32C78.3092 105.56 77.0292 100.18 77.0292 93.18C77.0292 89.7 77.3492 86.62 77.9892 83.94C78.6692 81.22 79.6292 78.94 80.8692 77.1C82.1492 75.26 83.6692 73.86 85.4292 72.9C87.2292 71.94 89.2492 71.46 91.4892 71.46C96.0092 71.46 99.5492 73.34 102.109 77.1C104.669 80.82 105.949 86.18 105.949 93.18ZM98.4492 93.18C98.4492 91.02 98.3292 89 98.0892 87.12C97.8492 85.24 97.4492 83.62 96.8892 82.26C96.3692 80.86 95.6692 79.76 94.7892 78.96C93.9092 78.16 92.8092 77.76 91.4892 77.76C90.1692 77.76 89.0492 78.16 88.1292 78.96C87.2492 79.76 86.5292 80.86 85.9692 82.26C85.4492 83.62 85.0692 85.24 84.8292 87.12C84.6292 89 84.5292 91.02 84.5292 93.18C84.5292 95.34 84.6292 97.36 84.8292 99.24C85.0692 101.12 85.4492 102.76 85.9692 104.16C86.5292 105.52 87.2492 106.6 88.1292 107.4C89.0492 108.2 90.1692 108.6 91.4892 108.6C92.8092 108.6 93.9092 108.2 94.7892 107.4C95.6692 106.6 96.3692 105.52 96.8892 104.16C97.4492 102.76 97.8492 101.12 98.0892 99.24C98.3292 97.36 98.4492 95.34 98.4492 93.18ZM140.051 93.18C140.051 100.18 138.771 105.56 136.211 109.32C133.651 113.04 130.111 114.9 125.591 114.9C121.071 114.9 117.531 113.04 114.971 109.32C112.411 105.56 111.131 100.18 111.131 93.18C111.131 89.7 111.451 86.62 112.091 83.94C112.771 81.22 113.731 78.94 114.971 77.1C116.251 75.26 117.771 73.86 119.531 72.9C121.331 71.94 123.351 71.46 125.591 71.46C130.111 71.46 133.651 73.34 136.211 77.1C138.771 80.82 140.051 86.18 140.051 93.18ZM132.551 93.18C132.551 91.02 132.431 89 132.191 87.12C131.951 85.24 131.551 83.62 130.991 82.26C130.471 80.86 129.771 79.76 128.891 78.96C128.011 78.16 126.911 77.76 125.591 77.76C124.271 77.76 123.151 78.16 122.231 78.96C121.351 79.76 120.631 80.86 120.071 82.26C119.551 83.62 119.171 85.24 118.931 87.12C118.731 89 118.631 91.02 118.631 93.18C118.631 95.34 118.731 97.36 118.931 99.24C119.171 101.12 119.551 102.76 120.071 104.16C120.631 105.52 121.351 106.6 122.231 107.4C123.151 108.2 124.271 108.6 125.591 108.6C126.911 108.6 128.011 108.2 128.891 107.4C129.771 106.6 130.471 105.52 130.991 104.16C131.551 102.76 131.951 101.12 132.191 99.24C132.431 97.36 132.551 95.34 132.551 93.18ZM174.152 93.18C174.152 100.18 172.872 105.56 170.312 109.32C167.752 113.04 164.212 114.9 159.692 114.9C155.172 114.9 151.632 113.04 149.072 109.32C146.512 105.56 145.232 100.18 145.232 93.18C145.232 89.7 145.552 86.62 146.192 83.94C146.872 81.22 147.832 78.94 149.072 77.1C150.352 75.26 151.872 73.86 153.632 72.9C155.432 71.94 157.452 71.46 159.692 71.46C164.212 71.46 167.752 73.34 170.312 77.1C172.872 80.82 174.152 86.18 174.152 93.18ZM166.652 93.18C166.652 91.02 166.532 89 166.292 87.12C166.052 85.24 165.652 83.62 165.092 82.26C164.572 80.86 163.872 79.76 162.992 78.96C162.112 78.16 161.012 77.76 159.692 77.76C158.372 77.76 157.252 78.16 156.332 78.96C155.452 79.76 154.732 80.86 154.172 82.26C153.652 83.62 153.272 85.24 153.032 87.12C152.832 89 152.732 91.02 152.732 93.18C152.732 95.34 152.832 97.36 153.032 99.24C153.272 101.12 153.652 102.76 154.172 104.16C154.732 105.52 155.452 106.6 156.332 107.4C157.252 108.2 158.372 108.6 159.692 108.6C161.012 108.6 162.112 108.2 162.992 107.4C163.872 106.6 164.572 105.52 165.092 104.16C165.652 102.76 166.052 101.12 166.292 99.24C166.532 97.36 166.652 95.34 166.652 93.18Z" fill="#00D465"/>
</svg>
