<svg width="35" height="35" viewBox="0 0 35 35" fill="none" xmlns="http://www.w3.org/2000/svg">
<path d="M14.7901 16.2708V2.71181C14.7901 1.21549 16.0056 0 17.5019 0C18.9983 0 20.2137 1.21549 20.2137 2.71181V16.2708C20.2137 17.7671 18.9983 18.9826 17.5019 18.9826C16.0056 18.9826 14.7901 17.7671 14.7901 16.2708ZM28.2512 3.97626C27.3727 3.28066 26.091 3.43332 25.3954 4.31325C24.6998 5.19463 24.851 6.47348 25.7324 7.17051C28.9583 9.71526 30.8075 13.5259 30.8075 17.6275C30.8075 24.9636 24.8381 30.933 17.5034 30.933C10.1672 30.933 4.19782 24.9636 4.19782 17.6275C4.19782 13.5273 6.04554 9.71814 9.26859 7.17483C10.15 6.47924 10.3012 5.20039 9.60559 4.31757C8.91 3.4362 7.63258 3.28643 6.74833 3.98058C2.54165 7.30013 0.129395 12.2744 0.129395 17.6275C0.129395 27.2073 7.92349 35 17.5019 35C27.0804 35 34.8745 27.2059 34.8745 17.6275C34.8745 12.2715 32.4594 7.29725 28.2512 3.97626Z" fill="#00D465"/>
</svg>
