<svg width="35" height="35" viewBox="0 0 35 35" fill="none" xmlns="http://www.w3.org/2000/svg">
<g clip-path="url(#clip0_1_123)">
<path d="M27.3437 35H7.65624C5.84791 35 4.37499 33.5285 4.37499 31.7188V16.4062C4.37499 14.5965 5.84791 13.125 7.65624 13.125H27.3437C29.1521 13.125 30.625 14.5965 30.625 16.4062V31.7188C30.625 33.5285 29.1521 35 27.3437 35ZM7.65624 15.3125C7.05395 15.3125 6.56249 15.8025 6.56249 16.4062V31.7188C6.56249 32.3225 7.05395 32.8125 7.65624 32.8125H27.3437C27.946 32.8125 28.4375 32.3225 28.4375 31.7188V16.4062C28.4375 15.8025 27.946 15.3125 27.3437 15.3125H7.65624Z" fill="#00D465"/>
<path d="M25.1562 15.3125C24.5525 15.3125 24.0625 14.8225 24.0625 14.2188V8.75C24.0625 5.13188 21.1181 2.1875 17.5 2.1875C13.8819 2.1875 10.9375 5.13188 10.9375 8.75V14.2188C10.9375 14.8225 10.4475 15.3125 9.84375 15.3125C9.24 15.3125 8.75 14.8225 8.75 14.2188V8.75C8.75 3.92438 12.6744 0 17.5 0C22.3256 0 26.25 3.92438 26.25 8.75V14.2188C26.25 14.8225 25.76 15.3125 25.1562 15.3125Z" fill="#00D465"/>
<path d="M17.4998 24.7916C15.8913 24.7916 14.5831 23.4835 14.5831 21.8749C14.5831 20.2664 15.8913 18.9583 17.4998 18.9583C19.1083 18.9583 20.4165 20.2664 20.4165 21.8749C20.4165 23.4835 19.1083 24.7916 17.4998 24.7916ZM17.4998 21.1457C17.0988 21.1457 16.7706 21.4724 16.7706 21.8749C16.7706 22.2774 17.0988 22.6041 17.4998 22.6041C17.9008 22.6041 18.229 22.2774 18.229 21.8749C18.229 21.4724 17.9008 21.1457 17.4998 21.1457Z" fill="#00D465"/>
<path d="M17.5 29.1667C16.8963 29.1667 16.4062 28.6767 16.4062 28.0729V24.0625C16.4062 23.4588 16.8963 22.9688 17.5 22.9688C18.1038 22.9688 18.5938 23.4588 18.5938 24.0625V28.0729C18.5938 28.6767 18.1038 29.1667 17.5 29.1667Z" fill="#00D465"/>
</g>
<defs>
<clipPath id="clip0_1_123">
<rect width="35" height="35" fill="white"/>
</clipPath>
</defs>
</svg>
