<svg width="120" height="120" viewBox="0 0 120 120" fill="none" xmlns="http://www.w3.org/2000/svg">
<g clip-path="url(#clip0_1_271)">
<path d="M114.789 33.1148H112.7C112.046 31.3577 111.281 29.6546 110.405 28.0193L112.013 26.4118C114.048 24.3767 114.048 21.0774 112.013 19.0424L100.958 7.98753C98.9231 5.95247 95.6238 5.95247 93.5888 7.98753L91.5156 10.0607C90.0196 9.35482 88.4732 8.7393 86.8857 8.21365V5.21106C86.8857 2.33294 84.5525 0 81.6746 0H66.0405C63.1627 0 60.8295 2.33294 60.8295 5.21106V8.21365C59.2422 8.73953 57.6956 9.35506 56.1996 10.0607L54.1264 7.98753C52.0914 5.95247 48.7921 5.95247 46.757 7.98753L35.7022 19.0424C33.6671 21.0774 33.6671 24.3769 35.7022 26.4118L37.3097 28.0193C36.434 29.6546 35.6688 31.3577 35.0151 33.1148H32.9257C30.0478 33.1148 27.7147 35.4478 27.7147 38.3259V53.9598C27.7147 56.8377 30.0476 59.1708 32.9257 59.1708H34.0801C34.6885 61.2558 35.454 63.2741 36.3671 65.2092L35.7024 65.8739C33.6674 67.9089 33.6674 71.2082 35.7024 73.2433L46.7572 84.2981C48.7923 86.3332 52.0916 86.3332 54.1267 84.2981L54.3257 84.0993C56.3944 85.2073 58.5699 86.1412 60.8299 86.8894V87.0746C60.8299 89.9525 63.1629 92.2857 66.041 92.2857H81.6751C84.553 92.2857 86.8862 89.9527 86.8862 87.0746V86.8894C89.1459 86.1409 91.3215 85.2071 93.3904 84.0993L93.5895 84.2981C95.6245 86.3332 98.9238 86.3332 100.959 84.2981L112.014 73.2433C114.049 71.2082 114.049 67.9089 112.014 65.8739L111.349 65.2092C112.262 63.2741 113.028 61.2558 113.636 59.1708H114.79C117.668 59.1708 120.001 56.8379 120.001 53.9598V38.3259C120.001 35.448 117.668 33.1148 114.789 33.1148ZM73.8577 64.2087C64.6572 64.2087 57.2005 56.752 57.2005 47.5515C57.2005 38.3511 64.6572 30.8944 73.8577 30.8944C83.0582 30.8944 90.5149 38.3513 90.5149 47.5515C90.5149 56.7518 83.0579 64.2087 73.8577 64.2087Z" fill="url(#paint0_linear_1_271)"/>
<path d="M73.8587 77.8802C90.6105 77.8802 104.187 64.3033 104.187 47.5515C104.187 30.7998 90.6105 17.2226 73.8587 17.2226C57.1069 17.2226 43.53 30.7995 43.53 47.5513C43.53 64.3031 57.1067 77.8802 73.8587 77.8802ZM73.8587 30.8944C83.0592 30.8944 90.5159 38.3511 90.5159 47.5515C90.5159 56.752 83.0592 64.2087 73.8587 64.2087C64.6582 64.2087 57.2015 56.7518 57.2015 47.5515C57.2015 38.3513 64.6582 30.8944 73.8587 30.8944Z" fill="url(#paint1_linear_1_271)"/>
<path d="M66.0384 92.2858H81.6722C82.5492 92.2858 83.3748 92.0682 84.0998 91.6856L52.2619 60.0832C50.8096 58.631 48.6908 58.631 47.2388 60.0832L46.5706 60.7515L41.5675 55.7637C40.8972 54.7884 39.7748 54.619 38.5021 54.619C38.5021 54.619 27.7438 54.5567 27.7743 54.7555C28.1574 57.2555 30.3162 59.1705 32.9235 59.1705H34.0779C34.6863 61.2557 35.4518 63.2738 36.3649 65.2089L35.7002 65.8736C33.6652 67.9087 33.6652 71.208 35.7002 73.243L46.7551 84.2978C48.7901 86.3329 52.0894 86.3329 54.1245 84.2978L54.3235 84.099C56.3922 85.207 58.5678 86.1409 60.8278 86.8891V87.0743C60.8275 89.9527 63.1605 92.2858 66.0384 92.2858Z" fill="url(#paint2_linear_1_271)"/>
<path d="M62.1334 77.7778H60.6423C60.176 76.5239 59.6299 75.3087 59.0049 74.1418L60.152 72.9948C61.6042 71.5428 61.6042 69.1884 60.152 67.7362L52.2635 59.8477C50.8115 58.3955 48.4572 58.3955 47.0049 59.8477L45.5256 61.327C44.4581 60.8235 43.3546 60.3842 42.2219 60.0089V57.8663C42.2219 55.8127 40.5572 54.1479 38.5035 54.1479H27.3477C25.2941 54.1479 23.6294 55.8127 23.6294 57.8663V60.0089C22.4967 60.3839 21.3932 60.8232 20.3256 61.327L18.8463 59.8477C17.3941 58.3955 15.04 58.3955 13.5878 59.8477L5.69928 67.7362C4.24704 69.1884 4.24704 71.5428 5.69928 72.9948L6.84634 74.1418C6.2214 75.3089 5.67551 76.5239 5.20893 77.7778H3.71787C1.66469 77.7778 -1.52588e-05 79.4425 -1.52588e-05 81.4962V92.6519C-1.52588e-05 94.7056 1.66469 96.3703 3.71834 96.3703H4.54187C4.97599 97.8581 5.52234 99.2983 6.17387 100.679L5.69951 101.153C4.24728 102.605 4.24728 104.96 5.69951 106.412L13.588 114.3C15.0402 115.753 17.3943 115.753 18.8466 114.3L18.9885 114.159C20.4647 114.949 22.0169 115.615 23.6296 116.15V116.282C23.6296 118.335 25.2943 120 27.348 120H38.5038C40.5574 120 42.2221 118.335 42.2221 116.282V116.15C43.8346 115.615 45.387 114.949 46.8633 114.159L47.0052 114.3C48.4574 115.753 50.8115 115.753 52.2638 114.3L60.1522 106.412C61.6045 104.96 61.6045 102.606 60.1522 101.153L59.6779 100.679C60.3294 99.2981 60.8755 97.8581 61.3099 96.3703H62.1336C64.1873 96.3703 65.852 94.7056 65.852 92.6519V81.4962C65.8518 79.4425 64.187 77.7778 62.1334 77.7778ZM32.9259 99.9651C26.3609 99.9651 21.04 94.6442 21.04 88.0792C21.04 81.5141 26.3609 76.1934 32.9259 76.1934C39.4908 76.1934 44.8118 81.5143 44.8118 88.0792C44.8118 94.6442 39.4908 99.9651 32.9259 99.9651Z" fill="url(#paint3_linear_1_271)"/>
<path d="M48.2296 72.7762C39.7771 64.3237 26.0762 64.3237 17.6239 72.7762C9.17169 81.2287 9.17145 94.9296 17.6239 103.382C26.0764 111.834 39.7773 111.834 48.2296 103.382C56.6818 94.9294 56.6821 81.2287 48.2296 72.7762ZM24.522 96.4837C19.8799 91.8416 19.8799 84.3167 24.522 79.6745C29.1642 75.0324 36.6891 75.0324 41.3315 79.6745C45.9736 84.3167 45.9736 91.8416 41.3315 96.4837C36.6891 101.126 29.1644 101.126 24.522 96.4837Z" fill="url(#paint4_linear_1_271)"/>
</g>
<defs>
<linearGradient id="paint0_linear_1_271" x1="40.6617" y1="12.9471" x2="111.642" y2="83.9275" gradientUnits="userSpaceOnUse">
<stop stop-color="#43D88A"/>
<stop offset="1" stop-color="#19A05A"/>
</linearGradient>
<linearGradient id="paint1_linear_1_271" x1="95.6782" y1="69.3711" x2="49.0227" y2="22.7155" gradientUnits="userSpaceOnUse">
<stop stop-color="#57DB96"/>
<stop offset="1" stop-color="#179352"/>
</linearGradient>
<linearGradient id="paint2_linear_1_271" x1="90.1287" y1="112.693" x2="9.36799" y2="31.9324" gradientUnits="userSpaceOnUse">
<stop stop-color="#07485E" stop-opacity="0"/>
<stop offset="0.3332" stop-color="#063F52" stop-opacity="0.333"/>
<stop offset="0.9358" stop-color="#032632" stop-opacity="0.936"/>
<stop offset="1" stop-color="#03232E"/>
</linearGradient>
<linearGradient id="paint3_linear_1_271" x1="9.23857" y1="63.3868" x2="59.8877" y2="114.036" gradientUnits="userSpaceOnUse">
<stop stop-color="#58E49B"/>
<stop offset="1" stop-color="#189956"/>
</linearGradient>
<linearGradient id="paint4_linear_1_271" x1="32.9268" y1="110.113" x2="32.9268" y2="63.039" gradientUnits="userSpaceOnUse">
<stop stop-color="#45EF96"/>
<stop offset="1" stop-color="#1A9D59"/>
</linearGradient>
<clipPath id="clip0_1_271">
<rect width="120" height="120" fill="white"/>
</clipPath>
</defs>
</svg>
