<svg width="34" height="35" viewBox="0 0 34 35" fill="none" xmlns="http://www.w3.org/2000/svg">
<path d="M24.4592 28.0141C24.4592 29.4538 22.9951 30.625 21.1956 30.625C19.396 30.625 17.9319 29.4538 17.9319 28.0141C17.9319 26.9786 18.6894 26.0821 19.7843 25.6602V11.502C19.7843 10.8784 20.4161 10.373 21.1956 10.373C21.975 10.373 22.6068 10.8784 22.6068 11.502V25.6602C23.7017 26.0821 24.4592 26.9786 24.4592 28.0141ZM10.54 12.317C9.93893 11.9201 9.04946 11.9883 8.5533 12.4693C6.64109 14.3237 2.84878 13.2435 2.84878 10.8316V7.51512C2.84878 5.10527 6.63915 4.02189 8.55322 5.87732C9.04937 6.35821 9.93893 6.42631 10.54 6.02938C11.1411 5.63246 11.2262 4.92089 10.73 4.43999C9.57711 3.32239 7.878 2.68145 6.06829 2.68145C2.73667 2.68145 0.0261993 4.84983 0.0261993 7.51512V10.8316C0.0261993 13.4969 2.73667 15.6653 6.06829 15.6653C7.87835 15.6653 9.57772 15.0242 10.7305 13.9064C11.2266 13.4254 11.1413 12.7138 10.54 12.317ZM33.8972 5.08064C33.8972 5.70422 33.2654 6.20968 32.4859 6.20968H27.1053V11.0081H30.7218C31.5012 11.0081 32.1331 11.5135 32.1331 12.1371C32.1331 12.7607 31.5012 13.2661 30.7218 13.2661H27.1053V18.0645H28.9576C29.7371 18.0645 30.3689 18.57 30.3689 19.1935C30.3689 19.8171 29.7371 20.3226 28.9576 20.3226H27.1053V22.8707C28.9075 24.1918 29.9279 26.0364 29.9279 28.0141C29.9279 31.8662 26.0106 35 21.1956 35C16.3805 35 12.4632 31.8662 12.4632 28.0141C12.4632 26.0365 13.4836 24.1918 15.2858 22.8707V4.72782C15.2858 2.12089 17.9369 0 21.1956 0C24.1237 0 26.56 1.71281 27.0244 3.95161H32.4859C33.2654 3.95161 33.8972 4.45707 33.8972 5.08064ZM27.1053 28.0141C27.1053 26.5464 26.2748 25.1869 24.8265 24.2841C24.4833 24.0702 24.2828 23.7416 24.2828 23.3935V4.72782C24.2828 3.366 22.8978 2.25806 21.1956 2.25806C19.4933 2.25806 18.1084 3.366 18.1084 4.72782V23.3935C18.1084 23.7416 17.9078 24.0702 17.5646 24.2841C16.1163 25.1869 15.2858 26.5464 15.2858 28.0141C15.2858 30.621 17.9369 32.7419 21.1956 32.7419C24.4542 32.7419 27.1053 30.621 27.1053 28.0141Z" fill="#00D465"/>
</svg>
