<svg width="29" height="35" viewBox="0 0 29 35" fill="none" xmlns="http://www.w3.org/2000/svg">
<path d="M17.6512 15.642C17.0831 15.6417 16.577 15.2798 16.3919 14.7412C16.218 14.2344 15.7414 13.8941 15.2054 13.8941C15.2052 13.8941 15.205 13.8941 15.2049 13.8941L14.4194 13.8945C14.0312 13.8946 13.6649 14.0744 13.4275 14.3815C13.1901 14.6886 13.1082 15.0883 13.2057 15.4641C13.7312 17.4887 15.5589 18.9031 17.6509 18.9036C20.5895 18.9029 22.9804 16.5114 22.9808 13.5722C22.9803 10.123 20.1739 7.31677 16.7245 7.31677C12.6376 7.31693 9.31252 10.6421 9.31252 14.7292C9.31311 19.6125 13.2865 23.5858 18.1702 23.5863C24.0499 23.5858 28.8336 18.8019 28.8341 12.9223C28.8341 9.47072 27.4899 6.22561 25.0492 3.78496C22.6088 1.34406 19.3639 -8.36287e-05 15.9121 3.90248e-09C7.23024 3.90248e-09 0.166962 7.06319 0.166962 15.745C0.166962 20.8932 2.1718 25.7332 5.81208 29.3734C9.22162 32.7831 13.7444 34.7807 18.5473 34.9987C18.5664 34.9997 18.5852 35.0001 18.6043 35.0001C18.9265 35.0001 19.237 34.8761 19.4709 34.6526C19.7185 34.4159 19.8587 34.0882 19.8587 33.7456V32.9918C19.8587 32.3223 19.3331 31.7707 18.6643 31.7388C10.1209 31.3294 3.42863 24.3042 3.42863 15.7451C3.42863 8.86171 9.02868 3.26176 15.9121 3.26176C18.4925 3.26167 20.9183 4.2666 22.7431 6.09121C24.5678 7.91591 25.5727 10.342 25.5727 12.9223C25.5725 17.0037 22.2519 20.3243 18.1707 20.3248C15.0853 20.3243 12.575 17.8141 12.5745 14.729C12.5745 12.4406 14.4364 10.5787 16.7249 10.5785C18.3756 10.5785 19.719 11.9217 19.7194 13.5723C19.7192 14.7133 18.791 15.6417 17.6512 15.642Z" fill="#00D465"/>
</svg>
